<svg width="380" height="295.3666666666667" viewBox="0 0 380 295.3666666666667" style={{ background: 'transparent' }}>
    <g transform="translate(44.66666666666666, 0)">
      <defs>
        <clipPath id="gridRectMaskh6gdwj8">
          <rect width="298.6666666666667" height="316.6666666666667" x="-3" y="-1" fill="#fff"></rect>
        </clipPath>
        <clipPath id="forecastMaskh6gdwj8"></clipPath>
        <clipPath id="nonForecastMaskh6gdwj8"></clipPath>
        <clipPath id="gridRectMarkerMaskh6gdwj8">
          <rect width="296.6666666666667" height="318.6666666666667" x="-2" y="-2" fill="#fff"></rect>
        </clipPath>
      </defs>
      <g className="apexcharts-pie">
        <circle r="88.89674796747968" cx="146.33333333333334" cy="146.33333333333334" fill="transparent"></circle>
        <g className="apexcharts-slices">
          {/* Desktop Slice */}
          <path d="M 146.33333333333334 9.569105691056905 A 136.76422764227644 136.76422764227644 0 0 1 214.71544715447158 264.7746288005027 L 190.7817073170732 223.3201753869934 A 88.89674796747968 88.89674796747968 0 0 0 146.33333333333334 57.43658536585366 L 146.33333333333334 9.569105691056905 z" fill="rgba(60,80,224,1)" stroke="#ffffff"></path>
          {/* Tablet Slice */}
          <path d="M 214.71544715447158 264.7746288005027 A 136.76422764227644 136.76422764227644 0 0 1 43.96383897777021 237.02479151972892 L 79.7931620022173 205.28278115449046 A 88.89674796747968 88.89674796747968 0 0 0 190.7817073170732 223.3201753869934 L 214.71544715447158 264.7746288005027 z" fill="rgba(101,119,243,1)" stroke="#ffffff"></path>
          {/* Mobile Slice */}
          <path d="M 43.96383897777021 237.02479151972892 A 136.76422764227644 136.76422764227644 0 0 1 82.7758276412985 25.23462387367242 L 105.0209546335107 67.61917218455375 A 88.89674796747968 88.89674796747968 0 0 0 79.7931620022173 205.28278115449046 L 43.96383897777021 237.02479151972892 z" fill="rgba(143,208,239,1)" stroke="#ffffff"></path>
          {/* Unknown Slice */}
          <path d="M 82.7758276412985 25.23462387367242 A 136.76422764227644 136.76422764227644 0 0 1 146.30946347274147 9.569107774095187 L 146.3178179239486 57.436586719828554 A 88.89674796747968 88.89674796747968 0 0 0 105.0209546335107 67.61917218455375 L 82.7758276412985 25.23462387367242 z" fill="rgba(15,173,207,1)" stroke="#ffffff"></path>
        </g>
      </g>
    </g>
  </svg>