<?xml version="1.0" encoding="UTF-8"?>
<svg id="Layer_2" data-name="Layer 2" xmlns="http://www.w3.org/2000/svg" viewBox="0 0 289.02 273.77">
  <defs>
    <style>
      .cls-1 {
        fill: #7e60bf;
      }
    </style>
  </defs>
  <g id="Layer_1-2" data-name="Layer 1">
    <g>
      <path class="cls-1" d="m69.6,45.33c0-.33.03-.47.12-.4.12.09.08.21-.12.4Z"/>
      <path class="cls-1" d="m219.85,190.72l69.17-56.92c-1.41.61-92.48,39.94-198.87,88.07-6.13-33.19-28.09-54.38-28.09-54.38l99.58-22.98L281.13,0,61.04,97.02c-6.4.33-20.75-4.05-18.89-5.36,29.91-21.21,27.39-43.07,27.44-46.33-1.56,1.43-12.16,6.99-32.8,38.41-.11.17-.33.5-.55.47-1.37-.19-.76-13.24.29-27.53-4.11,4.37-10,11.69-14.38,22.13-4.69,11.14-5.66,21.07-5.79,27.23C-7.13,128.17.86,158.51,3.26,159.53c.4.17.8.01,1.36-.21,4.48-1.78,14.05-4.96,17.61-4.09,7.19,1.77,7.4,24.36,7.41,26.56.06,21.42-6.61,26.78-6.13,44.17.1,3.82-.04,19.88,8.05,30.26,11.32,14.54,34.32,19.34,67.78,16.97,98.04-9.96,181.91-44.77,180.76-52.09-36.78.64-65.36,1.54-156.25,4.09l96-34.47Zm-187.4-59.81c-6,4.6-12,1.47-12,1.47,0,0-2.18-7.02,3.89-13.21,6.06-6.19,13.66-2.75,13.66-2.75,0,0,.45,9.9-5.55,14.49Z"/>
    </g>
  </g>
</svg>