<svg width="77" height="69" viewBox="0 0 77 69" fill="none" xmlns="http://www.w3.org/2000/svg">
<path d="M54.5064 0C52.9704 7.37748 46.389 12.922 38.502 12.922C30.615 12.922 24.0297 7.37748 22.4976 0H10.644C12.2875 13.8251 24.1295 24.5484 38.502 24.5484C52.8744 24.5484 64.7126 13.8251 66.3599 0H54.5064Z" fill="white"/>
<path d="M54.5064 69C52.9704 61.6225 46.389 56.078 38.502 56.078C30.615 56.078 24.0335 61.6225 22.4976 69H10.644C12.2875 55.1748 24.1295 44.4516 38.502 44.4516C52.8744 44.4516 64.7165 55.1787 66.3599 69H54.5064Z" fill="white"/>
<path d="M0 50.381C7.4339 48.8567 13.0208 42.3252 13.0208 34.4981C13.0208 26.671 7.4339 20.1394 0 18.6152V6.8516C13.9309 8.48258 24.74 20.2347 24.74 34.4981C24.74 48.7615 13.9309 60.5136 0 62.1446V50.381Z" fill="white"/>
<path d="M76.9999 50.381C69.566 48.8567 63.9791 42.3252 63.9791 34.4981C63.9791 26.671 69.566 20.1394 76.9999 18.6152V6.8516C63.0691 8.48258 52.2638 20.2347 52.2638 34.4981C52.2638 48.7615 63.0729 60.5136 77.0038 62.1446V50.381H76.9999Z" fill="white"/>
<path d="M38.565 25C33.2814 25 29 29.2489 29 34.4924C29 39.7359 33.2814 43.9848 38.565 43.9848C43.8486 43.9848 48.13 39.7359 48.13 34.4924C48.13 29.2489 43.8486 25 38.565 25ZM38.565 40.0179C35.4893 40.0179 32.9934 37.5448 32.9934 34.4886C32.9934 31.4324 35.4855 28.9593 38.565 28.9593C41.6445 28.9593 44.1366 31.4324 44.1366 34.4886C44.1366 37.5448 41.6445 40.0179 38.565 40.0179Z" fill="white"/>
</svg>
