<svg width="441" height="529" viewBox="0 0 441 529" fill="none" xmlns="http://www.w3.org/2000/svg">
<rect width="441" height="529" rx="10" fill="#F8F3FC"/>
<g clip-path="url(#clip0_0_1)">
<path d="M56.8772 211.678C56.8772 211.678 31.2551 216.381 35.3968 245.912C39.5385 275.454 57.7431 335.246 102.864 308.03C147.974 280.824 158.917 322.972 189.432 337.654C219.947 352.337 224.746 352.67 264.588 326.33C304.429 299.99 306.683 325.506 343.488 331.304C380.294 337.091 406.25 338.489 409.557 307.592C412.864 276.695 380.305 255.162 378.667 226.1C377.039 197.028 387.67 121.146 326.181 157.549C264.692 193.951 241.647 198.102 218.82 176.381C195.984 154.65 137.395 148.424 128.204 175.745C119.013 203.055 72.1608 166.527 56.8877 211.689L56.8772 211.678Z" fill="#B6A9E0"/>
<path d="M300.068 348.04C299.776 347.853 299.401 347.936 299.213 348.228C295.927 353.296 294.331 357.728 293.569 361.096C292.035 355.079 288.405 349.354 288.217 349.062C288.029 348.77 287.643 348.687 287.362 348.875C287.07 349.062 286.986 349.448 287.174 349.73C287.226 349.813 292.547 358.176 292.974 365.048C292.849 366.831 292.995 367.884 293.006 367.999C293.047 368.312 293.319 368.531 293.621 368.531C293.652 368.531 293.684 368.531 293.715 368.531C294.049 368.478 294.289 368.166 294.237 367.832C294.226 367.749 293.183 359.803 300.256 348.906C300.444 348.614 300.361 348.238 300.068 348.051V348.04Z" fill="#4E2F7F"/>
<path d="M299.724 340.824C293.59 335.412 291.253 337.123 291.441 331.554C291.639 325.986 288.488 321.679 285.432 320.876C282.385 320.073 278.807 320.219 277.399 314.088C275.99 307.957 270.472 307.3 267.905 308.572C265.339 309.844 262.564 314.662 266.622 319.469C270.68 324.276 268.427 327.05 267.237 329.969C266.048 332.889 267.613 337.988 272.182 341.179C276.752 344.359 273.977 345.204 274.634 353.358C275.291 361.513 292.317 357.373 292.317 357.373C292.317 357.373 305.838 346.236 299.703 340.824H299.724Z" fill="#9278D1"/>
<path d="M291.076 337.613L285.755 344.245L282.563 337.863L280.278 333.306L283.71 324.86L279.756 332.242L276.178 325.1L268.865 310.501L275.542 324.641L269.272 321.158L275.792 325.183L281.812 337.957L270.732 334.881L282.604 339.646L288.499 352.472L278.369 350.147L289.469 354.193L291.232 357.926L292.328 357.383L286.423 345.569L291.076 337.613Z" fill="#4E2F7F"/>
<path d="M288.572 337.926C294.706 332.514 297.043 334.224 296.855 328.655C296.657 323.087 299.808 318.78 302.864 317.977C305.911 317.175 309.489 317.321 310.897 311.189C312.316 305.058 317.824 304.401 320.391 305.673C322.947 306.955 325.732 311.763 321.674 316.57C317.616 321.377 319.869 324.151 321.059 327.07C322.248 329.99 320.683 335.089 316.114 338.28C311.544 341.46 314.319 342.305 313.662 350.459C313.005 358.614 295.979 354.474 295.979 354.474C295.979 354.474 282.458 343.337 288.593 337.926H288.572Z" fill="#AC8FE5"/>
<path d="M297.21 334.714L302.53 341.346L305.733 334.954L308.008 330.397L304.586 321.961L308.54 329.344L312.118 322.19L319.421 307.592L312.754 321.731L319.024 318.249L312.504 322.274L306.474 335.047L317.564 331.971L305.681 336.737L299.797 349.573L309.927 347.237L298.827 351.283L297.064 355.027L295.958 354.474L301.873 342.66L297.21 334.714Z" fill="#4E2F7F"/>
<path d="M307.11 377.467C307.11 374.287 305.337 371.44 302.541 369.521C302.51 368.134 301.383 367.029 299.985 367.029H288.29C286.903 367.029 285.776 368.145 285.734 369.521C282.938 371.44 281.165 374.276 281.165 377.457C281.165 380.637 282.938 383.484 285.734 385.392C285.766 386.779 286.892 387.884 288.29 387.884H299.985C301.372 387.884 302.499 386.768 302.541 385.392C305.337 383.473 307.11 380.637 307.11 377.446V377.467Z" fill="white"/>
<path d="M285.745 369.834H302.541C302.708 369.834 302.854 369.698 302.854 369.521C302.854 369.344 302.718 369.208 302.541 369.208H285.745C285.578 369.208 285.432 369.344 285.432 369.521C285.432 369.698 285.567 369.834 285.745 369.834Z" fill="#9875BC"/>
<path d="M302.551 385.1H285.755C285.588 385.1 285.442 385.236 285.442 385.413C285.442 385.59 285.578 385.726 285.755 385.726H302.551C302.718 385.726 302.864 385.59 302.864 385.413C302.864 385.236 302.729 385.1 302.551 385.1Z" fill="#9875BC"/>
<path d="M137.489 235.651H56.8772V265.433H137.489V235.651Z" fill="#EFEAF4"/>
<path d="M110.083 239.468H59.7462V241.209H110.083V239.468Z" fill="#D9D1F2"/>
<path d="M68.8954 199.864V196.642C68.9372 196.256 68.9789 195.87 69.0311 195.484C69.6883 189.572 71.9522 184.348 75.9374 179.926C80.1729 175.223 85.4205 172.293 91.6591 171.188C92.6919 171 93.7456 170.896 94.7888 170.76H98.0125C98.1481 170.792 98.2837 170.844 98.4298 170.844C102.728 171.146 106.755 172.377 110.427 174.629C117.552 178.998 121.934 185.286 123.478 193.513C123.666 194.546 123.77 195.589 123.906 196.631V199.853C123.864 200.239 123.822 200.625 123.77 201.011C123.113 206.923 120.849 212.148 116.864 216.569C112.628 221.261 107.381 224.202 101.142 225.307C100.109 225.495 99.0557 225.599 98.0125 225.735H94.7888C94.6532 225.704 94.5176 225.651 94.3715 225.651C90.0734 225.349 86.0464 224.119 82.3742 221.866C75.2488 217.497 70.8672 211.209 69.3232 202.982C69.1354 201.949 69.0311 200.907 68.8954 199.864ZM119.629 198.258C119.629 185.453 109.248 175.057 96.4163 175.025C83.6261 174.994 73.2041 185.38 73.1623 198.216C73.1206 211.011 83.5739 221.48 96.3954 221.47C109.217 221.47 119.608 211.074 119.618 198.258H119.629Z" fill="#EFEAF4"/>
<path d="M94.2672 192.022C94.2672 189.926 94.2464 187.83 94.2672 185.745C94.2881 184.129 95.7486 183.107 97.1883 183.67C98.0542 184.014 98.5445 184.796 98.5445 185.901C98.5445 189.447 98.5654 192.992 98.5237 196.527C98.5237 197.163 98.7219 197.518 99.2226 197.883C101.518 199.561 103.782 201.292 106.056 202.992C106.849 203.587 107.224 204.348 106.974 205.328C106.609 206.788 104.95 207.393 103.688 206.527C102.895 205.974 102.133 205.38 101.361 204.796C99.4 203.326 97.4491 201.835 95.4669 200.396C94.6219 199.78 94.2359 199.019 94.2568 197.987C94.2881 196.006 94.2568 194.014 94.2568 192.033L94.2672 192.022Z" fill="#EFEAF4"/>
<path d="M221.741 170.76H145.908V239.468H221.741V170.76Z" fill="white"/>
<path d="M218.81 175.745H148.819C148.641 175.745 148.495 175.891 148.495 176.068C148.495 176.245 148.641 176.391 148.819 176.391H181.472V234.411C181.472 234.588 181.618 234.734 181.796 234.734C181.973 234.734 182.119 234.588 182.119 234.411V176.391H218.81C218.987 176.391 219.133 176.245 219.133 176.068C219.133 175.891 218.987 175.745 218.81 175.745Z" fill="#AC8FE5"/>
<path d="M162.902 188.602H153.524V203.753H162.902V188.602Z" fill="#D9D1F2"/>
<path d="M153.524 188.602H162.902C162.902 188.602 163.779 202.763 159.804 202.763H150.248C150.248 202.763 153.513 199.478 153.513 188.602H153.524Z" fill="#AC8FE5"/>
<path d="M162.902 206.746H153.524V221.897H162.902V206.746Z" fill="#D9D1F2"/>
<path d="M153.524 206.746H162.902C162.902 206.746 163.779 220.907 159.804 220.907H150.248C150.248 220.907 153.513 217.622 153.513 206.746H153.524Z" fill="#AC8FE5"/>
<path d="M198.8 206.746H189.422V221.897H198.8V206.746Z" fill="#D9D1F2"/>
<path d="M189.422 206.746H198.8C198.8 206.746 199.677 220.907 195.702 220.907H186.146C186.146 220.907 189.411 217.622 189.411 206.746H189.422Z" fill="#AC8FE5"/>
<path d="M237.046 299.99H383.799C389.371 299.99 393.888 295.475 393.888 289.906V181.386C393.888 175.817 389.371 171.303 383.799 171.303L237.046 171.303C231.474 171.303 226.958 175.817 226.958 181.386L226.958 289.906C226.958 295.475 231.474 299.99 237.046 299.99Z" fill="white"/>
<path d="M318.523 233.211H237.296V235.464H318.523V233.211Z" fill="#D9D1F2"/>
<path d="M248.344 188.321H237.63V229.697H248.344V188.321Z" fill="#D9D1F2"/>
<path d="M262.428 194.056H251.714V229.697H262.428V194.056Z" fill="#D9D1F2"/>
<path d="M276.898 200.865H266.184V229.697H276.898V200.865Z" fill="#D9D1F2"/>
<path d="M292.328 205.119H281.613V229.697H292.328V205.119Z" fill="#D9D1F2"/>
<path d="M318.523 225.589H296.72V227.57H318.523V225.589Z" fill="#D9D1F2"/>
<path d="M318.523 220.479H296.72V222.461H318.523V220.479Z" fill="#D9D1F2"/>
<path d="M318.523 215.026H296.72V217.007H318.523V215.026Z" fill="#D9D1F2"/>
<path d="M312.744 271.585C312.692 271.502 312.608 271.439 312.514 271.429C312.42 271.408 312.316 271.449 312.243 271.512L298.118 285.005L282.041 267.112C281.979 267.049 281.895 267.007 281.801 267.007C281.707 267.007 281.624 267.049 281.561 267.112L269.668 280.031L241.615 257.195L246.779 256.371C246.957 256.34 247.071 256.183 247.04 256.006C247.009 255.829 246.852 255.714 246.675 255.745L240.802 256.684C240.802 256.684 240.791 256.684 240.781 256.684C240.729 256.694 240.687 256.715 240.656 256.747C240.645 256.747 240.635 256.767 240.624 256.767C240.583 256.809 240.551 256.851 240.541 256.903C240.541 256.945 240.53 256.976 240.541 257.018L241.271 262.961C241.292 263.118 241.428 263.243 241.584 263.243C241.594 263.243 241.605 263.243 241.626 263.243C241.803 263.222 241.928 263.066 241.907 262.888L241.271 257.727L269.501 280.699C269.626 280.803 269.825 280.793 269.939 280.667L281.801 267.779L297.867 285.662C297.93 285.725 298.003 285.767 298.097 285.767C298.18 285.767 298.264 285.735 298.326 285.683L312.389 272.252L322.717 290.761C322.78 290.866 322.884 290.928 322.999 290.928C323.051 290.928 323.103 290.918 323.155 290.887C323.312 290.803 323.364 290.605 323.281 290.449L312.754 271.585H312.744Z" fill="#D9D1F2"/>
<path d="M298.639 245.912H298.211V269.416H298.639V245.912Z" fill="#D9D1F2"/>
<path d="M269.282 245.912H268.854V269.416H269.282V245.912Z" fill="#D9D1F2"/>
<path d="M368.839 189.301H332.586V192.492H368.839V189.301Z" fill="#D9D1F2"/>
<path d="M232.821 183.013H388.035C391.269 183.013 393.888 180.396 393.888 177.163C393.888 173.93 391.269 171.313 388.035 171.313H232.821C229.587 171.313 226.968 173.93 226.968 177.163C226.968 180.396 229.587 183.013 232.821 183.013Z" fill="#AC8FE5"/>
<path d="M288.332 173.127H332.534C334.704 173.127 336.467 171.365 336.467 169.196C336.467 167.027 334.704 165.265 332.534 165.265H288.332C286.162 165.265 284.399 167.027 284.399 169.196C284.399 171.365 286.162 173.127 288.332 173.127Z" fill="#4E2F7F"/>
<path d="M21.5216 388.479H419.478" stroke="#221238" stroke-linecap="round" stroke-linejoin="round"/>
<path d="M105.232 379.761C106.504 379.062 107.589 375.684 108.487 371.096V335.225H117.031V370.804C117.938 375.538 119.044 379.042 120.338 379.761C125.106 382.378 138.595 382.17 138.595 387.905H86.9749C86.9749 382.17 100.464 382.368 105.232 379.761Z" fill="white"/>
<path d="M117.031 339.458C117.031 339.458 113.067 341.94 108.487 341.909V335.214H117.031V339.458Z" fill="#9875BC"/>
<path d="M153.044 331.586C153.044 331.586 118.345 343.296 96.8857 334.213C75.4262 325.131 82.4994 295.663 86.1299 286.372C89.7604 277.091 116.217 274.067 125.711 287.592C135.204 301.116 153.711 313.421 153.044 331.596V331.586Z" fill="white"/>
<path d="M92.7962 304.484C83.0001 291.898 94.528 280.073 94.6845 279.927C104.314 276.778 119.117 278.175 125.721 287.581C129.466 292.91 134.61 298.05 139.419 303.441C128.329 319.083 100.036 313.786 92.7962 304.484Z" fill="#9875BC"/>
<path d="M124.845 262.909C124.845 262.909 124.511 267.633 127.442 270.282C130.374 272.93 130.562 287.445 125.085 285.297C119.608 283.149 112.795 266.757 112.795 266.757C112.795 266.757 115.873 262.492 115.894 258.988C115.915 255.485 125.012 259.739 124.845 262.888V262.909Z" fill="#EAA373"/>
<path d="M115.456 261.491C115.716 260.667 115.883 259.812 115.894 258.999C115.915 255.495 125.012 259.75 124.845 262.899C124.845 262.899 121.006 264.421 115.456 261.481V261.491Z" fill="#CE8451"/>
<path d="M110.271 256.538C108.434 254.525 107.84 252.085 108.935 251.095C110.031 250.104 112.399 250.928 114.225 252.951C114.235 252.961 114.256 252.982 114.266 253.003C116.008 254.943 116.603 257.258 115.664 258.29C115.633 258.321 115.602 258.363 115.57 258.394C114.475 259.385 112.107 258.561 110.281 256.538H110.271Z" fill="#EA736A"/>
<path d="M129.456 247.82C129.456 247.82 129.362 251.063 130.176 253.514C130.989 255.964 129.059 260.521 126.921 262.211C124.772 263.889 119.326 262.357 117.135 260.865C114.955 259.374 112.733 254.89 112.211 252.774C111.689 250.657 113.181 241.491 119.482 241.251C125.794 241.001 129.425 242.346 129.445 247.831L129.456 247.82Z" fill="#FABC8B"/>
<path d="M115.456 246.194C115.456 246.194 125.21 249.52 124.302 247.101C124.302 247.101 130.51 251.585 130.364 249.041C130.364 249.041 135.35 246.955 132.93 241.543C130.51 236.142 126.754 237.779 124.834 236.778C122.915 235.766 116.697 233.17 112.117 236.903C107.537 240.636 108.935 251.095 108.935 251.095L111.387 250.928C111.387 250.928 112.597 255.923 113.964 256.861C113.964 256.861 113.4 251.647 113.912 248.915C114.412 246.194 117.125 248.206 115.466 246.194H115.456Z" fill="#010200"/>
<path d="M140.859 369.5L139.982 378.572C139.982 378.572 140.932 386.946 148.078 381.45L151.468 364.036L140.848 369.49L140.859 369.5Z" fill="#FABC8B"/>
<path d="M156.977 387.905H135.611C135.611 387.905 136.811 375.183 140.212 376.153C143.613 377.123 144.03 380.282 148.078 378.499C151.041 377.196 156.34 380.376 158.969 383.974C160.159 385.601 158.99 387.895 156.966 387.895L156.977 387.905Z" fill="#211A2D"/>
<path d="M154.901 379.876C155.068 379.876 155.214 379.98 155.234 380.147C155.245 380.314 155.13 380.46 154.963 380.481C154.223 380.554 152.209 380.971 151.76 382.107C151.719 382.222 151.604 382.295 151.479 382.295C151.437 382.295 151.406 382.295 151.364 382.274C151.208 382.212 151.135 382.034 151.197 381.878C151.875 380.168 154.786 379.876 154.911 379.865L154.901 379.876Z" fill="white"/>
<path d="M149.465 380.574C150.143 378.864 153.054 378.572 153.179 378.562C153.346 378.562 153.492 378.666 153.513 378.833C153.524 379 153.409 379.146 153.242 379.167C152.501 379.24 150.488 379.657 150.039 380.793C149.997 380.908 149.883 380.981 149.757 380.981C149.716 380.981 149.684 380.981 149.643 380.96C149.486 380.898 149.413 380.72 149.476 380.564L149.465 380.574Z" fill="white"/>
<path d="M149.789 372.691L140.859 369.5L150.123 370.95L149.789 372.691Z" fill="#CE8451"/>
<path d="M122.477 369.5L121.6 378.572C121.6 378.572 122.55 386.946 129.696 381.45L133.086 364.036L122.466 369.49L122.477 369.5Z" fill="#FABC8B"/>
<path d="M138.595 387.905H117.229C117.229 387.905 118.429 375.183 121.83 376.153C125.231 377.123 125.648 380.282 129.696 378.499C132.659 377.196 137.958 380.376 140.587 383.974C141.777 385.601 140.608 387.895 138.584 387.895L138.595 387.905Z" fill="#31273E"/>
<path d="M136.529 379.876C136.696 379.876 136.842 379.98 136.863 380.147C136.873 380.314 136.759 380.46 136.592 380.481C135.851 380.554 133.837 380.971 133.389 382.107C133.347 382.222 133.232 382.295 133.107 382.295C133.065 382.295 133.034 382.295 132.992 382.274C132.836 382.212 132.763 382.034 132.826 381.878C133.504 380.168 136.414 379.876 136.54 379.865L136.529 379.876Z" fill="white"/>
<path d="M131.083 380.574C131.761 378.864 134.672 378.572 134.797 378.562C134.964 378.562 135.11 378.666 135.131 378.833C135.142 379 135.027 379.146 134.86 379.167C134.119 379.24 132.106 379.657 131.657 380.793C131.615 380.908 131.501 380.981 131.375 380.981C131.334 380.981 131.302 380.981 131.261 380.96C131.104 380.898 131.031 380.72 131.094 380.564L131.083 380.574Z" fill="white"/>
<path d="M131.407 372.691L122.477 369.5L131.751 370.95L131.407 372.691Z" fill="#CE8451"/>
<path d="M99.4625 311.804H141.871C141.871 311.804 153.273 314.025 156.153 319.875C159.032 325.725 153.044 372.013 153.044 372.013L138.845 369.74L139.857 337.446L135.611 371.565L120.15 369.146C120.15 369.146 123.395 332.503 122.477 331.596C121.569 330.689 113.546 331.648 103.698 327.561C101.424 326.612 99.1496 319.166 99.4521 316.507C99.7547 313.848 99.4521 311.815 99.4521 311.815L99.4625 311.804Z" fill="#4E2F7F"/>
<path d="M138.918 367.363L139.857 337.435C139.857 337.435 141.798 322.952 139.711 321.992C137.635 321.033 121.6 315.131 121.6 315.131C121.6 315.131 138.605 319.166 141.067 321.992C143.195 324.422 140.003 358.103 139.075 367.373L145.918 368.322C147.4 353.776 149.997 326.153 149.298 324.672C148.579 323.139 134.975 317.362 129.79 315.256C129.717 315.225 129.675 315.141 129.706 315.058C129.738 314.985 129.831 314.943 129.904 314.974C130.666 315.287 148.652 322.587 149.57 324.536C150.467 326.434 146.534 365.246 146.21 368.353L153.211 369.323C153.294 369.334 153.346 369.407 153.336 369.49C153.325 369.563 153.263 369.626 153.19 369.626C153.19 369.626 153.179 369.626 153.169 369.626L146.033 368.635L139.043 367.665C138.918 368.969 138.835 369.719 138.835 369.719L138.897 367.644H138.887C138.803 367.634 138.751 367.55 138.762 367.467C138.772 367.394 138.835 367.342 138.918 367.342V367.363Z" fill="#260D56"/>
<path d="M104.637 316.267C104.71 316.226 104.804 316.267 104.835 316.34C104.856 316.382 106.755 320.355 108.215 321.752C109.759 319.239 107.475 315.475 107.454 315.433C107.412 315.36 107.433 315.266 107.506 315.225C107.579 315.183 107.673 315.204 107.715 315.277C107.819 315.444 110.145 319.281 108.455 321.95C109.405 322.534 114.308 323.483 119.076 324.401C126.577 325.85 131.532 326.862 131.897 327.686C132.575 329.187 128.611 365.142 128.277 368.072L135.893 369.344C135.976 369.354 136.028 369.438 136.018 369.521C136.007 369.594 135.945 369.646 135.872 369.646H135.851L128.1 368.343L120.327 367.039C120.244 367.029 120.192 366.946 120.202 366.862C120.213 366.779 120.296 366.716 120.38 366.737L127.985 368.009C129.195 357.081 132.168 329.01 131.626 327.8C131.292 327.06 124.49 325.746 119.023 324.693C113.619 323.65 108.956 322.743 108.184 322.117C108.184 322.117 108.184 322.117 108.174 322.117C106.651 320.803 104.668 316.653 104.585 316.476C104.554 316.403 104.585 316.309 104.658 316.278L104.637 316.267Z" fill="#260D56"/>
<path d="M155.047 282.013C155.047 282.013 152.324 280.052 153.221 274.161C154.118 268.269 154.64 270.949 154.984 272.732C155.328 274.515 156.434 276.58 158.072 273.712C159.71 270.855 164.53 262.784 163.674 266.309C162.808 269.833 161.045 272.263 161.045 272.263C161.045 272.263 167.472 262.826 166.658 266.246C165.844 269.666 162.85 273.306 162.85 273.306C162.85 273.306 168.077 266.371 167.785 268.321C167.493 270.271 164.843 275.068 164.843 275.068C164.843 275.068 168.765 271.324 167.806 273.921C166.846 276.517 160.566 286.33 155.047 282.013Z" fill="#FABC8B"/>
<path d="M84.7215 301.909C85.8273 298.509 98.9931 274.265 98.9931 274.265L99.8694 272.325L113.651 265.433C113.651 265.433 123.812 279.166 125.283 266.569C125.283 266.569 136.633 271.835 137.948 273.253C139.262 274.672 141.464 292.878 141.464 292.878L151.667 277.81L160.513 283.493L150.216 303.035C150.216 303.035 144.103 312.409 142.09 312.816C140.066 313.223 114.016 313.014 114.016 313.014L99.0661 318.468V304.526C98.7949 304.526 98.5341 304.526 98.2628 304.536C85.1597 305.141 84.252 303.368 84.7319 301.909H84.7215Z" fill="#9278D1"/>
<path d="M113.421 266.257C113.494 266.215 113.588 266.236 113.63 266.298C116.28 270.469 120.098 273.18 122.925 272.888C125.721 272.607 126.191 267.706 126.201 267.654C126.201 267.57 126.274 267.508 126.368 267.518C126.451 267.518 126.514 267.602 126.503 267.685C126.483 267.894 126.003 272.888 122.956 273.201C122.852 273.212 122.737 273.212 122.633 273.222V304.547C122.633 304.63 122.56 304.703 122.477 304.703C122.393 304.703 122.32 304.63 122.32 304.547V273.222C119.472 273.107 115.883 270.448 113.359 266.476C113.317 266.403 113.338 266.309 113.4 266.267L113.421 266.257Z" fill="#FFDBE2"/>
<path d="M102.947 277.435C102.947 277.435 100.068 294.547 101.737 295.297C103.406 296.059 113.505 298.885 113.505 298.885C113.505 298.885 98.7114 297.425 98.5654 296.205C98.4193 294.985 102.957 277.435 102.957 277.435H102.947Z" fill="#DDCFF4"/>
<path d="M108.914 304.536H107.579L110.083 298.509L108.914 304.536Z" fill="#DDCFF4"/>
<path d="M135.444 304.536H131.699L133.097 278.04L135.444 304.536Z" fill="#DDCFF4"/>
<path d="M112.368 290.282C112.368 290.282 112.42 290.167 112.42 290.104V283.097C112.42 282.93 112.284 282.795 112.117 282.795H105.618C105.451 282.795 105.315 282.93 105.315 283.097V290.104C105.315 290.167 105.336 290.23 105.378 290.282C105.44 290.365 106.964 292.378 109.019 292.378C110.239 292.378 111.366 291.669 112.368 290.282ZM111.815 290C110.949 291.179 110.01 291.773 109.008 291.773C107.464 291.773 106.202 290.344 105.92 290V283.4H111.815V290.011V290Z" fill="#DDCFF4"/>
<path d="M113.494 298.885L112.242 304.536H123.384C123.384 304.536 121.965 299.489 113.484 298.885H113.494Z" fill="#FABC8B"/>
<path d="M243.243 387.905H220.5C217.819 387.905 215.649 385.528 215.649 382.587C215.649 379.646 217.819 377.269 220.5 377.269H238.392V315.183H91.5861V387.905H53.1529C50.4717 387.905 48.3018 385.528 48.3018 382.587V309.865C48.3018 306.924 50.4717 304.547 53.1529 304.547H243.243C245.204 304.547 246.884 305.829 247.656 307.665H281.812V387.916H243.253L243.243 387.905Z" fill="#4E2F7F"/>
<path d="M187.982 379.761C189.255 379.062 190.34 375.684 191.237 371.096V335.225H199.781V370.804C200.689 375.538 201.795 379.042 203.088 379.761C207.856 382.378 221.345 382.17 221.345 387.905H169.725C169.725 382.17 183.214 382.368 187.982 379.761Z" fill="white"/>
<path d="M199.781 339.458C199.781 339.458 195.817 341.94 191.237 341.909V335.214H199.781V339.458Z" fill="#9875BC"/>
<path d="M235.794 331.586C235.794 331.586 201.096 343.296 179.636 334.213C158.176 325.131 165.25 295.663 168.88 286.372C172.511 277.091 198.967 274.067 208.461 287.592C217.954 301.116 236.462 313.421 235.794 331.596V331.586Z" fill="white"/>
<path d="M175.536 304.484C165.74 291.898 177.268 280.073 177.424 279.927C187.054 276.778 201.857 278.175 208.461 287.581C212.206 292.91 217.349 298.05 222.159 303.441C211.069 319.083 182.776 313.786 175.536 304.484Z" fill="#9875BC"/>
<path d="M204.768 267.247C204.768 267.247 203.286 271.752 205.477 275.037C207.668 278.321 204.298 292.44 199.51 289.02C194.721 285.6 192.134 268.04 192.134 268.04C192.134 268.04 196.161 264.661 197.048 261.272C197.924 257.883 205.696 264.234 204.768 267.247Z" fill="#EAA373"/>
<path d="M196.015 263.577C196.464 262.836 196.839 262.054 197.048 261.272C197.924 257.883 205.696 264.234 204.768 267.247C204.768 267.247 200.678 267.779 196.015 263.577Z" fill="#CE8451"/>
<path d="M192.207 257.508C190.924 255.109 190.945 252.596 192.238 251.898C193.073 251.449 194.231 251.866 195.295 252.847C195.89 253.399 196.453 254.129 196.912 254.984C196.912 255.005 196.933 255.026 196.943 255.036C198.154 257.341 198.175 259.729 196.996 260.511C196.954 260.532 196.923 260.563 196.881 260.584C196.714 260.667 196.537 260.73 196.349 260.751C195.055 260.907 193.323 259.593 192.197 257.497L192.207 257.508Z" fill="#E89997"/>
<path d="M212.936 253.743C212.936 253.743 212.05 256.861 212.237 259.437C212.425 262.013 209.442 265.965 206.948 267.07C204.455 268.175 199.552 265.349 197.799 263.368C196.046 261.387 194.993 256.496 195.013 254.317C195.024 252.127 198.717 243.618 204.893 244.922C211.069 246.225 214.261 248.415 212.936 253.743Z" fill="#FABC8B"/>
<path d="M193.981 266.236C193.981 266.236 184.581 267.602 182.766 269.719C180.951 271.835 173.679 314.985 173.679 314.985H236.994L232.748 300C232.748 300 221.992 297.883 220.323 296.82C218.653 295.756 211.685 271.689 210.172 270.928C208.659 270.167 204.434 268.655 204.434 268.655C204.434 268.655 201.669 277.425 193.97 266.225L193.981 266.236Z" fill="#D9D1F2"/>
<path d="M206.5 278.415C206.5 278.415 205.602 279.155 204.789 277.028C203.975 274.911 204.121 273.045 204.121 273.045C204.121 273.045 202.671 273.097 201.868 272.138C201.868 272.138 197.319 273.806 195.379 271.867C193.428 269.927 193.981 266.236 193.981 266.236H193.991C197.663 271.575 200.209 272.367 201.868 271.741C203.161 271.251 203.912 269.906 204.246 269.166L204.392 269.009L204.476 268.676C204.799 268.79 208.732 270.209 210.182 270.928C210.777 271.22 212.196 275.068 213.802 279.698C213.802 279.698 212.957 282.711 209.775 280.928C206.594 279.145 206.489 278.405 206.489 278.405L206.5 278.415Z" fill="#AC8FE5"/>
<path d="M188.525 278.415C192.364 280.959 188.629 294.442 188.629 294.442C193.981 293.838 206.166 298.509 206.166 298.509L187.095 295.902L188.535 278.415H188.525Z" fill="#AC8FE5"/>
<path d="M206.155 280.939C206.625 277.727 209.014 304.338 209.014 304.338L207.209 304.401C207.209 304.401 205.686 284.15 206.155 280.939Z" fill="#AC8FE5"/>
<path d="M193.981 266.236L201.868 271.741C201.868 271.741 192.718 275.85 193.981 266.236Z" fill="white"/>
<path d="M201.868 271.741L204.392 269.009C206.072 274.755 201.868 271.741 201.868 271.741Z" fill="white"/>
<path d="M205.467 298.415L204.476 304.536H214.981C214.981 304.536 214.574 299.656 205.467 298.415Z" fill="#FABC8B"/>
<path d="M232.748 299.99L232.904 304.536H241.594C241.594 304.536 241.939 300.699 232.748 299.99Z" fill="#FABC8B"/>
<path d="M203.954 383.327C203.954 383.327 201.836 380.668 201.941 378.656C202.045 376.654 206.917 365.715 206.917 365.715L199.301 363.734L196.808 371.701C196.808 371.701 193.636 374.255 195.316 377.822C196.996 381.388 202.796 387.488 203.944 383.327H203.954Z" fill="#FABC8B"/>
<path d="M196.818 371.701C196.818 371.701 194.607 372.691 194.304 374.172C194.002 375.653 194.878 377.686 194.763 379.605C194.648 381.534 193.939 385.486 193.939 385.486L194.961 385.757L196.568 381.096C196.568 381.096 196.505 386.153 199.28 386.883C202.066 387.603 207.251 389.897 206.614 387.227C205.978 384.558 203.954 383.327 203.954 383.327C203.954 383.327 200.084 384.662 198.738 380.251C197.382 375.84 195.629 373.265 196.818 371.701Z" fill="#231527"/>
<path d="M197.309 370.126L203.328 374.297L203.85 372.399L197.309 370.126Z" fill="#CE8451"/>
<path d="M232.184 383.286C232.184 383.286 229.472 381.242 229.065 379.271C228.658 377.3 230.63 365.496 230.63 365.496H222.753L222.347 373.828C222.347 373.828 219.926 377.102 222.451 380.126C224.976 383.15 232.122 387.603 232.184 383.286Z" fill="#FABC8B"/>
<path d="M222.347 373.838C222.347 373.838 220.458 375.35 220.531 376.862C220.604 378.374 221.971 380.116 222.347 382.003C222.722 383.89 223.025 387.905 223.025 387.905H224.089L224.464 382.994C224.464 382.994 225.675 387.905 228.554 387.905C231.433 387.905 237.025 388.812 235.742 386.393C234.459 383.974 232.184 383.296 232.184 383.296C232.184 383.296 228.783 385.569 226.363 381.628C223.943 377.696 221.595 375.653 222.357 373.838H222.347Z" fill="#231527"/>
<path d="M222.347 373.838L229.242 375.288L229.43 373.682L222.347 373.838Z" fill="#CE8451"/>
<path d="M185.593 264.974C189.223 259.625 190.799 255.818 191.247 251.147C191.665 246.788 193.647 243.399 196.484 241.418C195.806 241.053 195.316 240.552 195.118 239.916C194.429 237.779 197.142 234.995 201.169 233.702C205.196 232.408 209.024 233.086 209.713 235.214C210.214 236.757 208.93 238.634 206.656 240.052C207.146 240.208 207.637 240.386 208.127 240.594C216.306 244.129 214.272 256.632 213.667 260.302C213.062 263.962 213.792 271.053 214.334 274.922C214.72 277.696 214.47 279.416 213.072 280.459C212.018 281.283 210.85 280.918 209.817 280.167C208.617 279.51 207.658 278.269 206.907 276.851V276.841C206.907 276.841 206.646 278.937 205.352 277.122C204.069 275.308 204.444 269.02 204.444 269.02L204.403 268.989C204.549 267.935 204.778 267.226 204.778 267.226C205.592 267.362 206.354 267.331 206.969 267.059C209.462 265.954 212.446 262.002 212.258 259.426C212.112 257.435 212.603 255.12 212.843 254.181C212.843 254.181 210.819 253.232 211.059 250.334C211.059 250.334 205.196 254.421 204.142 251.72C204.142 251.72 198.133 254.16 198.54 251.491L196.411 252.398C196.411 252.398 196.61 260.375 196.036 259.823C195.462 259.27 194.335 252.169 194.325 252.138C193.574 251.71 192.833 251.606 192.249 251.908C190.945 252.607 190.934 255.109 192.218 257.518C193.334 259.614 195.076 260.938 196.37 260.772C196.526 261.168 196.693 261.533 196.87 261.887C196.829 262.012 196.777 262.127 196.724 262.252C196.693 262.325 196.672 262.388 196.641 262.461C196.558 262.628 196.474 262.805 196.391 262.972C196.391 262.993 196.37 263.014 196.359 263.024C196.255 263.212 196.151 263.399 196.046 263.577C195.441 264.578 194.69 265.495 194.012 266.236C193.918 266.246 186.876 267.278 183.851 268.936C183.986 267.956 184.487 266.663 185.624 264.974H185.593Z" fill="#010000"/>
<path d="M195.013 262.2C195.013 262.711 195.233 263.139 195.514 263.139C195.796 263.139 196.015 262.722 196.015 262.2C196.015 261.679 195.796 261.262 195.514 261.262C195.233 261.262 195.013 261.679 195.013 262.2Z" fill="white"/>
<path d="M177.727 315.204C177.727 315.204 178.395 330.981 187.085 331.179C195.765 331.377 205.331 333.233 205.331 333.233L195.504 369.5L207.532 373.682L219.436 340.48L220.823 373.682H231.934C231.934 373.682 238.799 327.957 236.983 325.934C235.168 323.911 213.229 315.204 213.229 315.204H177.727Z" fill="#31273E"/>
<path d="M223.359 324.974C222.044 323.932 205.383 317.394 200.897 315.642L177.727 315.204H213.229L214.971 315.902L201.471 315.652C206.98 317.122 224.11 321.877 225.622 324.672C227.438 327.998 221.658 338.103 221.293 341.909C220.928 345.715 220.823 373.682 220.823 373.682L219.436 340.48C219.436 340.48 224.871 326.194 223.348 324.985L223.359 324.974Z" fill="#231527"/>
<path d="M92.0451 304.536H282.135C284.816 304.536 286.986 306.914 286.986 309.854V382.577C286.986 385.517 284.816 387.895 282.135 387.895H259.392C256.711 387.895 254.541 385.517 254.541 382.577C254.541 379.636 256.711 377.259 259.392 377.259H277.284V315.172H96.8857V377.259H114.777C117.459 377.259 119.628 379.636 119.628 382.577C119.628 385.517 117.459 387.895 114.777 387.895H92.0346C89.3535 387.895 87.1835 385.517 87.1835 382.577V309.854C87.1835 306.914 89.3535 304.536 92.0346 304.536H92.0451Z" fill="#AC8FE5"/>
<path d="M133.681 302.294L142.716 280.98C142.851 280.668 143.164 280.459 143.508 280.459H175.453C176.068 280.459 176.485 281.085 176.245 281.648L166.762 304.005C166.627 304.317 166.314 304.526 165.97 304.526H118.084C117.615 304.526 117.229 304.14 117.229 303.671C117.229 303.202 117.615 302.816 118.084 302.816H132.888C133.232 302.816 133.545 302.607 133.681 302.294Z" fill="#5B3B6D"/>
<path d="M135.444 304.536H167.388C167.733 304.536 168.046 304.328 168.181 304.015L177.664 281.658C177.904 281.095 177.487 280.469 176.871 280.469H144.927C144.583 280.469 144.27 280.678 144.134 280.991L134.651 303.348C134.411 303.911 134.829 304.536 135.444 304.536Z" fill="#1E1223"/>
<path d="M152.72 298.061C153.941 299.708 156.831 299.646 159.157 297.915C161.484 296.184 162.381 293.452 161.16 291.804C159.94 290.157 157.05 290.219 154.723 291.95C152.397 293.681 151.5 296.413 152.72 298.061Z" fill="white"/>
<path d="M218.393 302.294L227.427 280.98C227.563 280.668 227.876 280.459 228.22 280.459H260.164C260.78 280.459 261.197 281.085 260.957 281.648L251.474 304.005C251.338 304.317 251.025 304.526 250.681 304.526H202.796C202.327 304.526 201.941 304.14 201.941 303.671C201.941 303.202 202.327 302.816 202.796 302.816H217.6C217.944 302.816 218.257 302.607 218.393 302.294Z" fill="#7255AA"/>
<path d="M220.145 304.536H252.089C252.434 304.536 252.747 304.328 252.882 304.015L262.365 281.658C262.605 281.095 262.188 280.469 261.573 280.469H229.628C229.284 280.469 228.971 280.678 228.836 280.991L219.352 303.348C219.112 303.911 219.53 304.536 220.145 304.536Z" fill="#4E2F7F"/>
<path d="M236.775 298.061C237.995 299.708 240.885 299.646 243.211 297.915C245.538 296.184 246.435 293.452 245.215 291.804C243.994 290.157 241.104 290.219 238.778 291.95C236.451 293.681 235.554 296.413 236.775 298.061Z" fill="white"/>
<path d="M365.71 383.286C365.71 383.286 368.422 381.242 368.829 379.271C369.236 377.3 367.264 365.496 367.264 365.496H375.14L375.547 373.828C375.547 373.828 377.968 377.102 375.443 380.126C372.918 383.15 365.772 387.603 365.71 383.286Z" fill="#FABC8B"/>
<path d="M375.547 373.838C375.547 373.838 377.436 375.35 377.363 376.862C377.29 378.374 375.923 380.116 375.547 382.003C375.172 383.89 374.869 387.905 374.869 387.905H373.805L373.43 382.994C373.43 382.994 372.219 387.905 369.34 387.905C366.461 387.905 360.869 388.812 362.152 386.393C363.435 383.974 365.71 383.296 365.71 383.296C365.71 383.296 369.11 385.569 371.531 381.628C373.951 377.696 376.298 375.653 375.537 373.838H375.547Z" fill="#4E2F7F"/>
<path d="M375.547 373.838L368.213 371.701L375.474 372.441L375.547 373.838Z" fill="#CE8451"/>
<path d="M384.092 383.286C384.092 383.286 386.804 381.242 387.211 379.271C387.618 377.3 385.646 365.496 385.646 365.496H393.522L393.929 373.828C393.929 373.828 396.35 377.102 393.825 380.126C391.3 383.15 384.154 387.603 384.092 383.286Z" fill="#FABC8B"/>
<path d="M393.929 373.838C393.929 373.838 395.818 375.35 395.745 376.862C395.672 378.374 394.305 380.116 393.929 382.003C393.554 383.89 393.251 387.905 393.251 387.905H392.187L391.812 382.994C391.812 382.994 390.601 387.905 387.722 387.905C384.843 387.905 379.251 388.812 380.534 386.393C381.817 383.974 384.092 383.296 384.092 383.296C384.092 383.296 387.493 385.569 389.913 381.628C392.333 377.696 394.68 375.653 393.919 373.838H393.929Z" fill="#4E2F7F"/>
<path d="M386.71 372.577L393.888 373.171L393.835 371.909L386.71 372.577Z" fill="#CE8451"/>
<path d="M399.156 287.487L396.35 336.633L400.888 371.252L380.346 373.171L381.254 335.121L381.702 302.263L380.565 330.793L378.677 372.764L359.794 370.846L365.751 335.871L364.259 287.487H399.156Z" fill="#4E2F7F"/>
<path d="M394.858 212.064C396.058 213.065 395.536 215.662 393.7 217.883C392.093 219.822 390.007 220.813 388.703 220.375C388.515 220.312 388.348 220.219 388.191 220.093C388.15 220.062 388.118 220.02 388.087 219.989C387.044 218.936 387.566 216.465 389.308 214.337C389.318 214.317 389.339 214.306 389.349 214.285C390.007 213.493 390.747 212.857 391.478 212.419C392.792 211.626 394.075 211.439 394.847 212.085L394.858 212.064Z" fill="#E89997"/>
<path d="M378.614 225.297C378.614 225.297 379.199 230.271 376.225 233.211C373.252 236.152 373.742 251.491 379.428 248.968C385.114 246.444 391.53 228.801 391.53 228.801C391.53 228.801 388.077 224.442 387.889 220.74C387.701 217.038 378.291 221.97 378.614 225.286V225.297Z" fill="#EAA373"/>
<path d="M388.463 223.357C388.15 222.492 387.931 221.605 387.889 220.75C387.701 217.049 378.291 221.981 378.614 225.297C378.614 225.297 382.735 226.725 388.463 223.357Z" fill="#CE8451"/>
<path d="M373.023 209.572C373.023 209.572 373.273 212.992 372.532 215.62C371.792 218.248 374.035 222.972 376.382 224.65C378.729 226.329 384.415 224.442 386.647 222.763C388.88 221.084 391.019 216.246 391.467 213.983C391.916 211.72 389.913 202.106 383.236 202.148C376.559 202.189 372.783 203.774 373.023 209.572Z" fill="#FABC8B"/>
<path d="M370.091 211.678C369.893 203.806 374.024 195.536 382.975 195.536C391.926 195.536 394.127 202.2 395.505 209.363C396.882 216.527 402.609 222.513 402.609 222.513C400.491 226.486 397.101 227.518 395.108 227.768C392.124 226.444 389.349 225.318 389.318 225.307C389.005 224.692 388.703 224.035 388.463 223.357C388.39 223.149 388.317 222.93 388.254 222.721C388.254 222.7 388.244 222.68 388.233 222.659C388.181 222.461 388.129 222.273 388.077 222.075C388.056 222.002 388.045 221.918 388.035 221.845C388.004 221.71 387.983 221.574 387.962 221.439C388.223 221.115 388.473 220.75 388.713 220.375C390.017 220.823 392.104 219.822 393.71 217.883C395.546 215.672 396.068 213.065 394.868 212.064C394.253 211.553 393.293 211.574 392.271 212.012C392.26 212.106 391.196 218.853 389.464 219.259C389.464 219.259 391.499 213.607 390.121 211.386L388.88 210.469C389.182 213.399 382.516 208.55 382.516 208.55C383.935 211.272 375.046 206.736 375.046 206.736C374.441 209.843 373.064 210.677 373.064 210.677C373.075 211.897 373.012 213.92 372.532 215.62C371.792 218.248 374.035 222.972 376.382 224.65C376.956 225.057 377.738 225.255 378.614 225.286C378.614 225.286 378.646 225.589 378.656 226.089C378.656 226.089 372.772 227.852 368.912 229.353C365.344 227.518 364.937 224.588 364.937 224.588C367.66 224.087 370.289 219.541 370.091 211.668V211.678Z" fill="#010000"/>
<path d="M343.478 251.908C343.478 251.908 340.838 247.873 339.534 246.986C338.23 246.1 336.958 246.59 335.653 245.996C334.349 245.401 333.191 244.442 330.573 244.651C327.944 244.849 326.953 245.182 325.524 244.578C324.094 243.973 323.646 244.296 324.094 245.036C324.543 245.777 326.379 246.527 326.379 246.527C326.379 246.527 323.521 245.401 323.834 246.267C324.178 247.216 326.692 249.291 326.692 249.291C326.692 249.291 325.67 248.915 324.324 248.248C322.978 247.581 321.413 246.673 321.737 247.789C322.06 248.905 322.801 248.988 324.439 249.864C326.066 250.73 327.996 251.376 328.998 251.116C328.998 251.116 330.542 252.054 331.126 251.585C331.126 251.585 332.472 252.065 333.118 251.616C333.118 251.616 334.141 251.658 335.038 250.938C335.038 250.938 336.269 250.563 336.728 250.824C337.187 251.084 339.774 255.454 339.774 255.454L343.488 251.919L343.478 251.908Z" fill="#FABC8B"/>
<path d="M326.723 249.239L329.018 251.053C329.018 251.053 329.05 251.116 329.018 251.136C328.998 251.157 328.977 251.168 328.945 251.157C328.945 251.157 328.935 251.157 328.925 251.157L326.629 249.343C326.629 249.343 326.598 249.28 326.629 249.26C326.65 249.228 326.692 249.228 326.713 249.26L326.723 249.239Z" fill="#E0665C"/>
<path d="M326.254 246.423C326.848 246.09 327.767 246.267 328.612 246.851C328.851 246.548 329.144 246.392 329.477 246.392C330.02 246.392 330.98 246.809 332.44 248.79C332.868 249.374 333.817 249.531 333.828 249.531C333.859 249.531 333.88 249.562 333.88 249.604C333.88 249.635 333.849 249.656 333.807 249.656C333.786 249.656 333.577 249.614 333.317 249.52C332.993 249.406 332.586 249.207 332.336 248.863C330.907 246.913 329.989 246.507 329.467 246.507C329.175 246.507 328.914 246.642 328.695 246.913C329.311 247.383 330.103 248.457 330.688 249.249C330.959 249.614 331.188 249.927 331.345 250.104C331.856 250.688 333.118 251.533 333.129 251.543C333.16 251.564 333.16 251.595 333.15 251.627C333.129 251.658 333.098 251.658 333.066 251.647C333.014 251.616 331.783 250.782 331.261 250.188C331.094 250 330.865 249.687 330.594 249.322C329.999 248.519 329.185 247.414 328.57 246.976C327.767 246.402 326.848 246.215 326.296 246.527C326.296 246.527 326.285 246.538 326.275 246.559C326.223 247.049 329.154 249.791 331.136 251.522C331.157 251.543 331.168 251.585 331.136 251.606C331.115 251.627 331.094 251.627 331.074 251.627C331.074 251.627 331.063 251.627 331.053 251.616C330.542 251.168 326.076 247.257 326.15 246.548C326.15 246.496 326.181 246.454 326.223 246.423H326.254Z" fill="#E0665C"/>
<path d="M336.551 250.678C337.823 250.928 340.202 249.698 340.233 249.687C340.265 249.677 340.296 249.687 340.317 249.708C340.327 249.739 340.317 249.77 340.296 249.791C340.202 249.843 337.855 251.053 336.54 250.792C336.509 250.792 336.499 250.751 336.499 250.719C336.499 250.688 336.54 250.667 336.572 250.667L336.551 250.678Z" fill="#E0665C"/>
<path d="M333.546 249.093C333.546 249.093 333.504 249.134 333.473 249.124C333.442 249.114 333.431 249.072 333.442 249.041C333.64 248.603 334.141 248.603 334.297 248.603C334.829 247.685 336.624 246.705 336.697 246.663C336.728 246.642 336.759 246.663 336.78 246.684C336.801 246.715 336.78 246.746 336.759 246.767C336.738 246.767 334.871 247.8 334.391 248.696C334.381 248.717 334.36 248.728 334.329 248.728C334.329 248.728 333.744 248.665 333.557 249.082L333.546 249.093Z" fill="#E0665C"/>
<path d="M389.318 225.297C389.318 225.297 399.292 229.353 401.848 231.136C404.403 232.93 410.83 270.334 410.83 272.252C410.83 274.171 406.448 279.812 404.153 279.176C401.848 278.54 399.166 278.259 399.166 278.259L400.272 286.205C400.366 286.882 399.845 287.487 399.156 287.487H363.696C363.039 287.487 362.528 286.934 362.569 286.278L364.019 265.975C364.019 265.975 359.565 275.808 356.623 274.526C353.681 273.243 333.473 252.993 333.473 252.993L341.475 246.663L356.174 256.632C356.174 256.632 364.28 232.294 365.814 230.896C367.347 229.489 378.677 226.11 378.677 226.11C378.677 226.11 379.303 235.881 379.616 236.59C379.929 237.299 389.329 225.318 389.329 225.318L389.318 225.297Z" fill="#9278D1"/>
<path d="M397.789 259.948L397.758 236.569L400.585 261.846L403.319 266.767L387.555 255.12L397.789 259.948Z" fill="#260D56"/>
<path d="M367.368 235.505L364.009 265.975L361.401 270.751L367.368 235.505Z" fill="#260D56"/>
<path d="M399.156 278.259L399.98 284.182L397.257 278.499L383.778 263.962L376.163 261.637L384.686 262.909L399.156 278.259Z" fill="#260D56"/>
<path d="M389.318 225.297C389.318 225.297 392.458 242.836 379.595 236.569C379.595 236.569 388.39 229.687 389.318 225.297Z" fill="#260D56"/>
<path d="M379.595 236.569C379.595 236.569 372.021 238.644 378.656 226.089C378.656 226.089 377.342 234.202 379.595 236.569Z" fill="#260D56"/>
<path d="M379.595 236.569L389.318 225.297C392.677 239.916 379.595 236.569 379.595 236.569Z" fill="white"/>
<path d="M378.656 226.1L379.595 236.58C379.595 236.58 370.853 236.475 378.656 226.1Z" fill="white"/>
<path d="M378.072 255.381C377.415 255.151 375.088 254.265 372.804 252.409C370.102 250.208 378.468 253.597 381.379 254.838C384.29 256.079 383.945 253.869 383.173 252.294C382.401 250.73 381.243 248.373 385.343 252.367C386.355 253.347 387.054 254.275 387.545 255.12L384.676 262.909C380.878 263.691 375.558 261.595 374.035 260.626C371.802 259.187 376.966 259.791 376.966 259.791C376.966 259.791 372.157 257.643 370.811 256.329C369.726 255.266 374.65 256.528 376.653 257.07C375.255 256.653 372.376 255.673 370.456 254.088C368.057 252.117 376.664 254.922 378.051 255.381H378.072Z" fill="#FABC8B"/>
<path d="M395.734 289.239C395.734 289.239 395.734 289.249 395.734 289.26C395.056 295.068 398.582 297.425 398.728 297.529C398.864 297.623 398.906 297.811 398.822 297.946C398.76 298.04 398.666 298.082 398.572 298.082C398.52 298.082 398.457 298.071 398.405 298.029C398.238 297.925 394.42 295.391 395.129 289.197L364.259 287.477H399.135L399.041 289.416L395.734 289.229V289.239Z" fill="#260D56"/>
<path d="M396.35 336.633L400.888 371.252L393.627 336.174L397.528 315.902L396.35 336.633Z" fill="#260D56"/>
<path d="M91.8677 300.167H71.0654C69.8552 300.167 68.885 301.147 68.885 302.347C68.885 303.556 69.8657 304.526 71.0654 304.526H91.8677C93.0779 304.526 94.0481 303.546 94.0481 302.347C94.0481 301.137 93.0675 300.167 91.8677 300.167Z" fill="#8D63A8"/>
<path d="M82.051 300.167H56.8774V304.536H82.051V300.167Z" fill="#5B3B6D"/>
<path d="M92.0868 301.523H56.8042V303.587H92.0868V301.523Z" fill="#EFEAF4"/>
<path d="M82.0403 301.523H56.8042V303.587H82.0403V301.523Z" fill="#BFB3CE"/>
<path d="M94.455 295.902H73.6526C72.4425 295.902 71.4723 296.882 71.4723 298.082C71.4723 299.291 72.4529 300.261 73.6526 300.261H94.455C95.6651 300.261 96.6354 299.281 96.6354 298.082C96.6354 296.872 95.6547 295.902 94.455 295.902Z" fill="#FFDBE2"/>
<path d="M84.6382 295.902H59.4647V300.271H84.6382V295.902Z" fill="#FFB7C3"/>
<path d="M94.6741 297.258H59.3915V299.323H94.6741V297.258Z" fill="#EFEAF4"/>
<path d="M84.6276 297.258H59.3915V299.323H84.6276V297.258Z" fill="#BFB3CE"/>
<path d="M40.6652 295.245C40.6652 296.83 39.382 298.113 37.7963 298.113C36.2105 298.113 34.9273 296.83 34.9273 295.245C34.9273 293.66 36.2105 292.378 37.7963 292.378C39.382 292.378 40.6652 293.66 40.6652 295.245Z" fill="#EFEAF4"/>
<path d="M53.205 192.742C53.205 195.025 51.348 196.882 49.0633 196.882C46.7786 196.882 44.9216 195.025 44.9216 192.742C44.9216 190.458 46.7786 188.602 49.0633 188.602C51.348 188.602 53.205 190.458 53.205 192.742Z" stroke="#EFEAF4" stroke-miterlimit="10"/>
<path d="M340.609 344.047C340.609 347.571 337.75 350.428 334.224 350.428C330.698 350.428 327.84 347.571 327.84 344.047C327.84 340.522 330.698 337.665 334.224 337.665C337.75 337.665 340.609 340.522 340.609 344.047Z" stroke="#EFEAF4" stroke-miterlimit="10"/>
<path d="M262.438 161.96C262.438 163.086 261.531 163.993 260.404 163.993C259.277 163.993 258.37 163.086 258.37 161.96C258.37 160.833 259.277 159.926 260.404 159.926C261.531 159.926 262.438 160.833 262.438 161.96Z" fill="#EFEAF4"/>
<path d="M206.009 144.431C206.009 146.329 204.476 147.861 202.577 147.861C200.678 147.861 199.145 146.329 199.145 144.431C199.145 142.533 200.678 141 202.577 141C204.476 141 206.009 142.533 206.009 144.431Z" fill="#EFEAF4"/>
<path d="M405.916 202.148C407.743 202.148 409.223 200.668 409.223 198.842C409.223 197.016 407.743 195.536 405.916 195.536C404.09 195.536 402.609 197.016 402.609 198.842C402.609 200.668 404.09 202.148 405.916 202.148Z" fill="#EFEAF4"/>
<path d="M416.276 330.511C416.276 332.013 415.055 333.233 413.553 333.233C412.05 333.233 410.83 332.013 410.83 330.511C410.83 329.01 412.05 327.79 413.553 327.79C415.055 327.79 416.276 329.01 416.276 330.511Z" fill="#EFEAF4"/>
<path d="M59.5584 348.04C59.2663 347.853 58.8907 347.936 58.7029 348.228C55.4167 353.296 53.8205 357.728 53.059 361.096C51.5254 355.079 47.8949 349.354 47.7071 349.062C47.5193 348.77 47.1333 348.687 46.8517 348.875C46.5595 349.062 46.4761 349.448 46.6639 349.73C46.716 349.813 52.0366 358.176 52.4643 365.048C52.3391 366.831 52.4852 367.884 52.4956 367.999C52.5373 368.312 52.8086 368.531 53.1111 368.531C53.1424 368.531 53.1737 368.531 53.205 368.531C53.5389 368.478 53.7788 368.166 53.7266 367.832C53.7162 367.749 52.673 359.803 59.7462 348.906C59.934 348.614 59.8505 348.238 59.5584 348.051V348.04Z" fill="#4E2F7F"/>
<path d="M59.2141 340.824C53.0798 335.412 50.743 337.123 50.9307 331.554C51.129 325.986 47.9784 321.679 44.9216 320.876C41.8754 320.073 38.297 320.219 36.8886 314.088C35.4803 307.957 29.9615 307.3 27.3951 308.572C24.8391 309.854 22.0537 314.662 26.1119 319.469C30.1701 324.276 27.9167 327.05 26.7274 329.969C25.5381 332.889 27.103 337.988 31.6724 341.179C36.2418 344.359 33.4668 345.204 34.124 353.358C34.7813 361.513 51.8071 357.373 51.8071 357.373C51.8071 357.373 65.3275 346.236 59.1933 340.824H59.2141Z" fill="#9278D1"/>
<path d="M50.5656 337.613L45.245 344.245L42.0527 337.863L39.768 333.306L43.1899 324.86L39.2464 332.242L35.668 325.1L28.3549 310.501L35.0212 324.641L28.7618 321.158L35.282 325.183L41.3016 337.957L30.2223 334.881L42.0944 339.646L47.9888 352.472L37.8589 350.147L48.959 354.193L50.7221 357.926L51.8175 357.383L45.9127 345.569L50.5656 337.613Z" fill="#4E2F7F"/>
<path d="M48.0618 337.926C54.1961 332.514 56.533 334.224 56.3452 328.655C56.147 323.087 59.2976 318.78 62.3543 317.977C65.4006 317.175 68.9789 317.321 70.3873 311.189C71.7957 305.058 77.3144 304.401 79.8808 305.673C82.4368 306.955 85.2222 311.763 81.164 316.57C77.1058 321.377 79.3592 324.151 80.5485 327.07C81.7378 329.99 80.1729 335.089 75.6035 338.28C71.0341 341.46 73.8091 342.305 73.1519 350.459C72.4946 358.614 55.4689 354.474 55.4689 354.474C55.4689 354.474 41.9484 343.337 48.0827 337.926H48.0618Z" fill="#AC8FE5"/>
<path d="M56.6999 334.714L62.0204 341.346L65.2232 334.954L67.4975 330.397L64.0756 321.961L68.0296 329.344L71.6079 322.19L78.9106 307.592L72.2443 321.731L78.5142 318.249L71.9939 322.274L65.9639 335.047L77.0536 331.971L65.1711 336.737L59.2767 349.573L69.4171 347.237L58.3169 351.283L56.5538 355.027L55.448 354.474L61.3632 342.66L56.6999 334.714Z" fill="#4E2F7F"/>
<path d="M66.6003 377.467C66.6003 374.287 64.8268 371.44 62.0309 369.521C61.9996 368.134 60.8729 367.029 59.4749 367.029H47.7801C46.3926 367.029 45.2659 368.145 45.2242 369.521C42.4283 371.44 40.6548 374.276 40.6548 377.457C40.6548 380.637 42.4283 383.484 45.2242 385.392C45.2555 386.779 46.3822 387.884 47.7801 387.884H59.4749C60.8624 387.884 61.9891 386.768 62.0309 385.392C64.8268 383.473 66.6003 380.637 66.6003 377.446V377.467Z" fill="white"/>
<path d="M45.2346 369.834H62.0309C62.1978 369.834 62.3438 369.698 62.3438 369.521C62.3438 369.344 62.2082 369.208 62.0309 369.208H45.2346C45.0677 369.208 44.9216 369.344 44.9216 369.521C44.9216 369.698 45.0573 369.834 45.2346 369.834Z" fill="#9875BC"/>
<path d="M62.0309 385.1H45.2346C45.0677 385.1 44.9216 385.236 44.9216 385.413C44.9216 385.59 45.0573 385.726 45.2346 385.726H62.0309C62.1978 385.726 62.3438 385.59 62.3438 385.413C62.3438 385.236 62.2082 385.1 62.0309 385.1Z" fill="#9875BC"/>
</g>
<rect width="441" height="529" rx="10" fill="#F8F3FC"/>
<rect width="441" height="529" rx="10" fill="#F8F3FC"/>
<g clip-path="url(#clip1_0_1)">
<path d="M56.8772 211.678C56.8772 211.678 31.2551 216.381 35.3968 245.912C39.5385 275.454 57.7431 335.246 102.864 308.03C147.974 280.824 158.917 322.972 189.432 337.654C219.947 352.337 224.746 352.67 264.588 326.33C304.429 299.99 306.683 325.506 343.488 331.304C380.294 337.091 406.25 338.489 409.557 307.592C412.864 276.695 380.305 255.162 378.667 226.1C377.039 197.028 387.67 121.146 326.181 157.549C264.692 193.951 241.647 198.102 218.82 176.381C195.984 154.65 137.395 148.424 128.204 175.745C119.013 203.055 72.1608 166.527 56.8877 211.689L56.8772 211.678Z" fill="#B6A9E0"/>
<path d="M300.068 348.04C299.776 347.853 299.401 347.936 299.213 348.228C295.927 353.296 294.331 357.728 293.569 361.096C292.035 355.079 288.405 349.354 288.217 349.062C288.029 348.77 287.643 348.687 287.362 348.875C287.07 349.062 286.986 349.448 287.174 349.73C287.226 349.813 292.547 358.176 292.974 365.048C292.849 366.831 292.995 367.884 293.006 367.999C293.047 368.312 293.319 368.531 293.621 368.531C293.652 368.531 293.684 368.531 293.715 368.531C294.049 368.478 294.289 368.166 294.237 367.832C294.226 367.749 293.183 359.803 300.256 348.906C300.444 348.614 300.361 348.238 300.068 348.051V348.04Z" fill="#4E2F7F"/>
<path d="M299.724 340.824C293.59 335.412 291.253 337.123 291.441 331.554C291.639 325.986 288.488 321.679 285.432 320.876C282.385 320.073 278.807 320.219 277.399 314.088C275.99 307.957 270.472 307.3 267.905 308.572C265.339 309.844 262.564 314.662 266.622 319.469C270.68 324.276 268.427 327.05 267.237 329.969C266.048 332.889 267.613 337.988 272.182 341.179C276.752 344.359 273.977 345.204 274.634 353.358C275.291 361.513 292.317 357.373 292.317 357.373C292.317 357.373 305.838 346.236 299.703 340.824H299.724Z" fill="#9278D1"/>
<path d="M291.076 337.613L285.755 344.245L282.563 337.863L280.278 333.306L283.71 324.86L279.756 332.242L276.178 325.1L268.865 310.501L275.542 324.641L269.272 321.158L275.792 325.183L281.812 337.957L270.732 334.881L282.604 339.646L288.499 352.472L278.369 350.147L289.469 354.193L291.232 357.926L292.328 357.383L286.423 345.569L291.076 337.613Z" fill="#4E2F7F"/>
<path d="M288.572 337.926C294.706 332.514 297.043 334.224 296.855 328.655C296.657 323.087 299.808 318.78 302.864 317.977C305.911 317.175 309.489 317.321 310.897 311.189C312.316 305.058 317.824 304.401 320.391 305.673C322.947 306.955 325.732 311.763 321.674 316.57C317.616 321.377 319.869 324.151 321.059 327.07C322.248 329.99 320.683 335.089 316.114 338.28C311.544 341.46 314.319 342.305 313.662 350.459C313.005 358.614 295.979 354.474 295.979 354.474C295.979 354.474 282.458 343.337 288.593 337.926H288.572Z" fill="#AC8FE5"/>
<path d="M297.21 334.714L302.53 341.346L305.733 334.954L308.008 330.397L304.586 321.961L308.54 329.344L312.118 322.19L319.421 307.592L312.754 321.731L319.024 318.249L312.504 322.274L306.474 335.047L317.564 331.971L305.681 336.737L299.797 349.573L309.927 347.237L298.827 351.283L297.064 355.027L295.958 354.474L301.873 342.66L297.21 334.714Z" fill="#4E2F7F"/>
<path d="M307.11 377.467C307.11 374.287 305.337 371.44 302.541 369.521C302.51 368.134 301.383 367.029 299.985 367.029H288.29C286.903 367.029 285.776 368.145 285.734 369.521C282.938 371.44 281.165 374.276 281.165 377.457C281.165 380.637 282.938 383.484 285.734 385.392C285.766 386.779 286.892 387.884 288.29 387.884H299.985C301.372 387.884 302.499 386.768 302.541 385.392C305.337 383.473 307.11 380.637 307.11 377.446V377.467Z" fill="white"/>
<path d="M285.745 369.834H302.541C302.708 369.834 302.854 369.698 302.854 369.521C302.854 369.344 302.718 369.208 302.541 369.208H285.745C285.578 369.208 285.432 369.344 285.432 369.521C285.432 369.698 285.567 369.834 285.745 369.834Z" fill="#9875BC"/>
<path d="M302.551 385.1H285.755C285.588 385.1 285.442 385.236 285.442 385.413C285.442 385.59 285.578 385.726 285.755 385.726H302.551C302.718 385.726 302.864 385.59 302.864 385.413C302.864 385.236 302.729 385.1 302.551 385.1Z" fill="#9875BC"/>
<path d="M137.489 235.651H56.8772V265.433H137.489V235.651Z" fill="#EFEAF4"/>
<path d="M110.083 239.468H59.7462V241.209H110.083V239.468Z" fill="#D9D1F2"/>
<path d="M68.8954 199.864V196.642C68.9372 196.256 68.9789 195.87 69.0311 195.484C69.6883 189.572 71.9522 184.348 75.9374 179.926C80.1729 175.223 85.4205 172.293 91.6591 171.188C92.6919 171 93.7456 170.896 94.7888 170.76H98.0125C98.1481 170.792 98.2837 170.844 98.4298 170.844C102.728 171.146 106.755 172.377 110.427 174.629C117.552 178.998 121.934 185.286 123.478 193.513C123.666 194.546 123.77 195.589 123.906 196.631V199.853C123.864 200.239 123.822 200.625 123.77 201.011C123.113 206.923 120.849 212.148 116.864 216.569C112.628 221.261 107.381 224.202 101.142 225.307C100.109 225.495 99.0557 225.599 98.0125 225.735H94.7888C94.6532 225.704 94.5176 225.651 94.3715 225.651C90.0734 225.349 86.0464 224.119 82.3742 221.866C75.2488 217.497 70.8672 211.209 69.3232 202.982C69.1354 201.949 69.0311 200.907 68.8954 199.864ZM119.629 198.258C119.629 185.453 109.248 175.057 96.4163 175.025C83.6261 174.994 73.2041 185.38 73.1623 198.216C73.1206 211.011 83.5739 221.48 96.3954 221.47C109.217 221.47 119.608 211.074 119.618 198.258H119.629Z" fill="#EFEAF4"/>
<path d="M94.2672 192.022C94.2672 189.926 94.2464 187.83 94.2672 185.745C94.2881 184.129 95.7486 183.107 97.1883 183.67C98.0542 184.014 98.5445 184.796 98.5445 185.901C98.5445 189.447 98.5654 192.992 98.5237 196.527C98.5237 197.163 98.7219 197.518 99.2226 197.883C101.518 199.561 103.782 201.292 106.056 202.992C106.849 203.587 107.224 204.348 106.974 205.328C106.609 206.788 104.95 207.393 103.688 206.527C102.895 205.974 102.133 205.38 101.361 204.796C99.4 203.326 97.4491 201.835 95.4669 200.396C94.6219 199.78 94.2359 199.019 94.2568 197.987C94.2881 196.006 94.2568 194.014 94.2568 192.033L94.2672 192.022Z" fill="#EFEAF4"/>
<path d="M221.741 170.76H145.908V239.468H221.741V170.76Z" fill="white"/>
<path d="M218.81 175.745H148.819C148.641 175.745 148.495 175.891 148.495 176.068C148.495 176.245 148.641 176.391 148.819 176.391H181.472V234.411C181.472 234.588 181.618 234.734 181.796 234.734C181.973 234.734 182.119 234.588 182.119 234.411V176.391H218.81C218.987 176.391 219.133 176.245 219.133 176.068C219.133 175.891 218.987 175.745 218.81 175.745Z" fill="#AC8FE5"/>
<path d="M162.902 188.602H153.524V203.753H162.902V188.602Z" fill="#D9D1F2"/>
<path d="M153.524 188.602H162.902C162.902 188.602 163.779 202.763 159.804 202.763H150.248C150.248 202.763 153.513 199.478 153.513 188.602H153.524Z" fill="#AC8FE5"/>
<path d="M162.902 206.746H153.524V221.897H162.902V206.746Z" fill="#D9D1F2"/>
<path d="M153.524 206.746H162.902C162.902 206.746 163.779 220.907 159.804 220.907H150.248C150.248 220.907 153.513 217.622 153.513 206.746H153.524Z" fill="#AC8FE5"/>
<path d="M198.8 206.746H189.422V221.897H198.8V206.746Z" fill="#D9D1F2"/>
<path d="M189.422 206.746H198.8C198.8 206.746 199.677 220.907 195.702 220.907H186.146C186.146 220.907 189.411 217.622 189.411 206.746H189.422Z" fill="#AC8FE5"/>
<path d="M237.046 299.99H383.799C389.371 299.99 393.888 295.475 393.888 289.906V181.386C393.888 175.817 389.371 171.303 383.799 171.303L237.046 171.303C231.474 171.303 226.958 175.817 226.958 181.386L226.958 289.906C226.958 295.475 231.474 299.99 237.046 299.99Z" fill="white"/>
<path d="M318.523 233.211H237.296V235.464H318.523V233.211Z" fill="#D9D1F2"/>
<path d="M248.344 188.321H237.63V229.697H248.344V188.321Z" fill="#D9D1F2"/>
<path d="M262.428 194.056H251.714V229.697H262.428V194.056Z" fill="#D9D1F2"/>
<path d="M276.898 200.865H266.184V229.697H276.898V200.865Z" fill="#D9D1F2"/>
<path d="M292.328 205.119H281.613V229.697H292.328V205.119Z" fill="#D9D1F2"/>
<path d="M318.523 225.589H296.72V227.57H318.523V225.589Z" fill="#D9D1F2"/>
<path d="M318.523 220.479H296.72V222.461H318.523V220.479Z" fill="#D9D1F2"/>
<path d="M318.523 215.026H296.72V217.007H318.523V215.026Z" fill="#D9D1F2"/>
<path d="M312.744 271.585C312.692 271.502 312.608 271.439 312.514 271.429C312.42 271.408 312.316 271.449 312.243 271.512L298.118 285.005L282.041 267.112C281.979 267.049 281.895 267.007 281.801 267.007C281.707 267.007 281.624 267.049 281.561 267.112L269.668 280.031L241.615 257.195L246.779 256.371C246.957 256.34 247.071 256.183 247.04 256.006C247.009 255.829 246.852 255.714 246.675 255.745L240.802 256.684C240.802 256.684 240.791 256.684 240.781 256.684C240.729 256.694 240.687 256.715 240.656 256.747C240.645 256.747 240.635 256.767 240.624 256.767C240.583 256.809 240.551 256.851 240.541 256.903C240.541 256.945 240.53 256.976 240.541 257.018L241.271 262.961C241.292 263.118 241.428 263.243 241.584 263.243C241.594 263.243 241.605 263.243 241.626 263.243C241.803 263.222 241.928 263.066 241.907 262.888L241.271 257.727L269.501 280.699C269.626 280.803 269.825 280.793 269.939 280.667L281.801 267.779L297.867 285.662C297.93 285.725 298.003 285.767 298.097 285.767C298.18 285.767 298.264 285.735 298.326 285.683L312.389 272.252L322.717 290.761C322.78 290.866 322.884 290.928 322.999 290.928C323.051 290.928 323.103 290.918 323.155 290.887C323.312 290.803 323.364 290.605 323.281 290.449L312.754 271.585H312.744Z" fill="#D9D1F2"/>
<path d="M298.639 245.912H298.211V269.416H298.639V245.912Z" fill="#D9D1F2"/>
<path d="M269.282 245.912H268.854V269.416H269.282V245.912Z" fill="#D9D1F2"/>
<path d="M368.839 189.301H332.586V192.492H368.839V189.301Z" fill="#D9D1F2"/>
<path d="M232.821 183.013H388.035C391.269 183.013 393.888 180.396 393.888 177.163C393.888 173.93 391.269 171.313 388.035 171.313H232.821C229.587 171.313 226.968 173.93 226.968 177.163C226.968 180.396 229.587 183.013 232.821 183.013Z" fill="#AC8FE5"/>
<path d="M288.332 173.127H332.534C334.704 173.127 336.467 171.365 336.467 169.196C336.467 167.027 334.704 165.265 332.534 165.265H288.332C286.162 165.265 284.399 167.027 284.399 169.196C284.399 171.365 286.162 173.127 288.332 173.127Z" fill="#4E2F7F"/>
<path d="M21.5216 388.479H419.478" stroke="#221238" stroke-linecap="round" stroke-linejoin="round"/>
<path d="M105.232 379.761C106.504 379.062 107.589 375.684 108.487 371.096V335.225H117.031V370.804C117.938 375.538 119.044 379.042 120.338 379.761C125.106 382.378 138.595 382.17 138.595 387.905H86.9749C86.9749 382.17 100.464 382.368 105.232 379.761Z" fill="white"/>
<path d="M117.031 339.458C117.031 339.458 113.067 341.94 108.487 341.909V335.214H117.031V339.458Z" fill="#9875BC"/>
<path d="M153.044 331.586C153.044 331.586 118.345 343.296 96.8857 334.213C75.4262 325.131 82.4994 295.663 86.1299 286.372C89.7604 277.091 116.217 274.067 125.711 287.592C135.204 301.116 153.711 313.421 153.044 331.596V331.586Z" fill="white"/>
<path d="M92.7962 304.484C83.0001 291.898 94.528 280.073 94.6845 279.927C104.314 276.778 119.117 278.175 125.721 287.581C129.466 292.91 134.61 298.05 139.419 303.441C128.329 319.083 100.036 313.786 92.7962 304.484Z" fill="#9875BC"/>
<path d="M124.845 262.909C124.845 262.909 124.511 267.633 127.442 270.282C130.374 272.93 130.562 287.445 125.085 285.297C119.608 283.149 112.795 266.757 112.795 266.757C112.795 266.757 115.873 262.492 115.894 258.988C115.915 255.485 125.012 259.739 124.845 262.888V262.909Z" fill="#EAA373"/>
<path d="M115.456 261.491C115.716 260.667 115.883 259.812 115.894 258.999C115.915 255.495 125.012 259.75 124.845 262.899C124.845 262.899 121.006 264.421 115.456 261.481V261.491Z" fill="#CE8451"/>
<path d="M110.271 256.538C108.434 254.525 107.84 252.085 108.935 251.095C110.031 250.104 112.399 250.928 114.225 252.951C114.235 252.961 114.256 252.982 114.266 253.003C116.008 254.943 116.603 257.258 115.664 258.29C115.633 258.321 115.602 258.363 115.57 258.394C114.475 259.385 112.107 258.561 110.281 256.538H110.271Z" fill="#EA736A"/>
<path d="M129.456 247.82C129.456 247.82 129.362 251.063 130.176 253.514C130.989 255.964 129.059 260.521 126.921 262.211C124.772 263.889 119.326 262.357 117.135 260.865C114.955 259.374 112.733 254.89 112.211 252.774C111.689 250.657 113.181 241.491 119.482 241.251C125.794 241.001 129.425 242.346 129.445 247.831L129.456 247.82Z" fill="#FABC8B"/>
<path d="M115.456 246.194C115.456 246.194 125.21 249.52 124.302 247.101C124.302 247.101 130.51 251.585 130.364 249.041C130.364 249.041 135.35 246.955 132.93 241.543C130.51 236.142 126.754 237.779 124.834 236.778C122.915 235.766 116.697 233.17 112.117 236.903C107.537 240.636 108.935 251.095 108.935 251.095L111.387 250.928C111.387 250.928 112.597 255.923 113.964 256.861C113.964 256.861 113.4 251.647 113.912 248.915C114.412 246.194 117.125 248.206 115.466 246.194H115.456Z" fill="#010200"/>
<path d="M140.859 369.5L139.982 378.572C139.982 378.572 140.932 386.946 148.078 381.45L151.468 364.036L140.848 369.49L140.859 369.5Z" fill="#FABC8B"/>
<path d="M156.977 387.905H135.611C135.611 387.905 136.811 375.183 140.212 376.153C143.613 377.123 144.03 380.282 148.078 378.499C151.041 377.196 156.34 380.376 158.969 383.974C160.159 385.601 158.99 387.895 156.966 387.895L156.977 387.905Z" fill="#211A2D"/>
<path d="M154.901 379.876C155.068 379.876 155.214 379.98 155.234 380.147C155.245 380.314 155.13 380.46 154.963 380.481C154.223 380.554 152.209 380.971 151.76 382.107C151.719 382.222 151.604 382.295 151.479 382.295C151.437 382.295 151.406 382.295 151.364 382.274C151.208 382.212 151.135 382.034 151.197 381.878C151.875 380.168 154.786 379.876 154.911 379.865L154.901 379.876Z" fill="white"/>
<path d="M149.465 380.574C150.143 378.864 153.054 378.572 153.179 378.562C153.346 378.562 153.492 378.666 153.513 378.833C153.524 379 153.409 379.146 153.242 379.167C152.501 379.24 150.488 379.657 150.039 380.793C149.997 380.908 149.883 380.981 149.757 380.981C149.716 380.981 149.684 380.981 149.643 380.96C149.486 380.898 149.413 380.72 149.476 380.564L149.465 380.574Z" fill="white"/>
<path d="M149.789 372.691L140.859 369.5L150.123 370.95L149.789 372.691Z" fill="#CE8451"/>
<path d="M122.477 369.5L121.6 378.572C121.6 378.572 122.55 386.946 129.696 381.45L133.086 364.036L122.466 369.49L122.477 369.5Z" fill="#FABC8B"/>
<path d="M138.595 387.905H117.229C117.229 387.905 118.429 375.183 121.83 376.153C125.231 377.123 125.648 380.282 129.696 378.499C132.659 377.196 137.958 380.376 140.587 383.974C141.777 385.601 140.608 387.895 138.584 387.895L138.595 387.905Z" fill="#31273E"/>
<path d="M136.529 379.876C136.696 379.876 136.842 379.98 136.863 380.147C136.873 380.314 136.759 380.46 136.592 380.481C135.851 380.554 133.837 380.971 133.389 382.107C133.347 382.222 133.232 382.295 133.107 382.295C133.065 382.295 133.034 382.295 132.992 382.274C132.836 382.212 132.763 382.034 132.826 381.878C133.504 380.168 136.414 379.876 136.54 379.865L136.529 379.876Z" fill="white"/>
<path d="M131.083 380.574C131.761 378.864 134.672 378.572 134.797 378.562C134.964 378.562 135.11 378.666 135.131 378.833C135.142 379 135.027 379.146 134.86 379.167C134.119 379.24 132.106 379.657 131.657 380.793C131.615 380.908 131.501 380.981 131.375 380.981C131.334 380.981 131.302 380.981 131.261 380.96C131.104 380.898 131.031 380.72 131.094 380.564L131.083 380.574Z" fill="white"/>
<path d="M131.407 372.691L122.477 369.5L131.751 370.95L131.407 372.691Z" fill="#CE8451"/>
<path d="M99.4625 311.804H141.871C141.871 311.804 153.273 314.025 156.153 319.875C159.032 325.725 153.044 372.013 153.044 372.013L138.845 369.74L139.857 337.446L135.611 371.565L120.15 369.146C120.15 369.146 123.395 332.503 122.477 331.596C121.569 330.689 113.546 331.648 103.698 327.561C101.424 326.612 99.1496 319.166 99.4521 316.507C99.7547 313.848 99.4521 311.815 99.4521 311.815L99.4625 311.804Z" fill="#4E2F7F"/>
<path d="M138.918 367.363L139.857 337.435C139.857 337.435 141.798 322.952 139.711 321.992C137.635 321.033 121.6 315.131 121.6 315.131C121.6 315.131 138.605 319.166 141.067 321.992C143.195 324.422 140.003 358.103 139.075 367.373L145.918 368.322C147.4 353.776 149.997 326.153 149.298 324.672C148.579 323.139 134.975 317.362 129.79 315.256C129.717 315.225 129.675 315.141 129.706 315.058C129.738 314.985 129.831 314.943 129.904 314.974C130.666 315.287 148.652 322.587 149.57 324.536C150.467 326.434 146.534 365.246 146.21 368.353L153.211 369.323C153.294 369.334 153.346 369.407 153.336 369.49C153.325 369.563 153.263 369.626 153.19 369.626C153.19 369.626 153.179 369.626 153.169 369.626L146.033 368.635L139.043 367.665C138.918 368.969 138.835 369.719 138.835 369.719L138.897 367.644H138.887C138.803 367.634 138.751 367.55 138.762 367.467C138.772 367.394 138.835 367.342 138.918 367.342V367.363Z" fill="#260D56"/>
<path d="M104.637 316.267C104.71 316.226 104.804 316.267 104.835 316.34C104.856 316.382 106.755 320.355 108.215 321.752C109.759 319.239 107.475 315.475 107.454 315.433C107.412 315.36 107.433 315.266 107.506 315.225C107.579 315.183 107.673 315.204 107.715 315.277C107.819 315.444 110.145 319.281 108.455 321.95C109.405 322.534 114.308 323.483 119.076 324.401C126.577 325.85 131.532 326.862 131.897 327.686C132.575 329.187 128.611 365.142 128.277 368.072L135.893 369.344C135.976 369.354 136.028 369.438 136.018 369.521C136.007 369.594 135.945 369.646 135.872 369.646H135.851L128.1 368.343L120.327 367.039C120.244 367.029 120.192 366.946 120.202 366.862C120.213 366.779 120.296 366.716 120.38 366.737L127.985 368.009C129.195 357.081 132.168 329.01 131.626 327.8C131.292 327.06 124.49 325.746 119.023 324.693C113.619 323.65 108.956 322.743 108.184 322.117C108.184 322.117 108.184 322.117 108.174 322.117C106.651 320.803 104.668 316.653 104.585 316.476C104.554 316.403 104.585 316.309 104.658 316.278L104.637 316.267Z" fill="#260D56"/>
<path d="M155.047 282.013C155.047 282.013 152.324 280.052 153.221 274.161C154.118 268.269 154.64 270.949 154.984 272.732C155.328 274.515 156.434 276.58 158.072 273.712C159.71 270.855 164.53 262.784 163.674 266.309C162.808 269.833 161.045 272.263 161.045 272.263C161.045 272.263 167.472 262.826 166.658 266.246C165.844 269.666 162.85 273.306 162.85 273.306C162.85 273.306 168.077 266.371 167.785 268.321C167.493 270.271 164.843 275.068 164.843 275.068C164.843 275.068 168.765 271.324 167.806 273.921C166.846 276.517 160.566 286.33 155.047 282.013Z" fill="#FABC8B"/>
<path d="M84.7215 301.909C85.8273 298.509 98.9931 274.265 98.9931 274.265L99.8694 272.325L113.651 265.433C113.651 265.433 123.812 279.166 125.283 266.569C125.283 266.569 136.633 271.835 137.948 273.253C139.262 274.672 141.464 292.878 141.464 292.878L151.667 277.81L160.513 283.493L150.216 303.035C150.216 303.035 144.103 312.409 142.09 312.816C140.066 313.223 114.016 313.014 114.016 313.014L99.0661 318.468V304.526C98.7949 304.526 98.5341 304.526 98.2628 304.536C85.1597 305.141 84.252 303.368 84.7319 301.909H84.7215Z" fill="#9278D1"/>
<path d="M113.421 266.257C113.494 266.215 113.588 266.236 113.63 266.298C116.28 270.469 120.098 273.18 122.925 272.888C125.721 272.607 126.191 267.706 126.201 267.654C126.201 267.57 126.274 267.508 126.368 267.518C126.451 267.518 126.514 267.602 126.503 267.685C126.483 267.894 126.003 272.888 122.956 273.201C122.852 273.212 122.737 273.212 122.633 273.222V304.547C122.633 304.63 122.56 304.703 122.477 304.703C122.393 304.703 122.32 304.63 122.32 304.547V273.222C119.472 273.107 115.883 270.448 113.359 266.476C113.317 266.403 113.338 266.309 113.4 266.267L113.421 266.257Z" fill="#FFDBE2"/>
<path d="M102.947 277.435C102.947 277.435 100.068 294.547 101.737 295.297C103.406 296.059 113.505 298.885 113.505 298.885C113.505 298.885 98.7114 297.425 98.5654 296.205C98.4193 294.985 102.957 277.435 102.957 277.435H102.947Z" fill="#DDCFF4"/>
<path d="M108.914 304.536H107.579L110.083 298.509L108.914 304.536Z" fill="#DDCFF4"/>
<path d="M135.444 304.536H131.699L133.097 278.04L135.444 304.536Z" fill="#DDCFF4"/>
<path d="M112.368 290.282C112.368 290.282 112.42 290.167 112.42 290.104V283.097C112.42 282.93 112.284 282.795 112.117 282.795H105.618C105.451 282.795 105.315 282.93 105.315 283.097V290.104C105.315 290.167 105.336 290.23 105.378 290.282C105.44 290.365 106.964 292.378 109.019 292.378C110.239 292.378 111.366 291.669 112.368 290.282ZM111.815 290C110.949 291.179 110.01 291.773 109.008 291.773C107.464 291.773 106.202 290.344 105.92 290V283.4H111.815V290.011V290Z" fill="#DDCFF4"/>
<path d="M113.494 298.885L112.242 304.536H123.384C123.384 304.536 121.965 299.489 113.484 298.885H113.494Z" fill="#FABC8B"/>
<path d="M243.243 387.905H220.5C217.819 387.905 215.649 385.528 215.649 382.587C215.649 379.646 217.819 377.269 220.5 377.269H238.392V315.183H91.5861V387.905H53.1529C50.4717 387.905 48.3018 385.528 48.3018 382.587V309.865C48.3018 306.924 50.4717 304.547 53.1529 304.547H243.243C245.204 304.547 246.884 305.829 247.656 307.665H281.812V387.916H243.253L243.243 387.905Z" fill="#4E2F7F"/>
<path d="M187.982 379.761C189.255 379.062 190.34 375.684 191.237 371.096V335.225H199.781V370.804C200.689 375.538 201.795 379.042 203.088 379.761C207.856 382.378 221.345 382.17 221.345 387.905H169.725C169.725 382.17 183.214 382.368 187.982 379.761Z" fill="white"/>
<path d="M199.781 339.458C199.781 339.458 195.817 341.94 191.237 341.909V335.214H199.781V339.458Z" fill="#9875BC"/>
<path d="M235.794 331.586C235.794 331.586 201.096 343.296 179.636 334.213C158.176 325.131 165.25 295.663 168.88 286.372C172.511 277.091 198.967 274.067 208.461 287.592C217.954 301.116 236.462 313.421 235.794 331.596V331.586Z" fill="white"/>
<path d="M175.536 304.484C165.74 291.898 177.268 280.073 177.424 279.927C187.054 276.778 201.857 278.175 208.461 287.581C212.206 292.91 217.349 298.05 222.159 303.441C211.069 319.083 182.776 313.786 175.536 304.484Z" fill="#9875BC"/>
<path d="M204.768 267.247C204.768 267.247 203.286 271.752 205.477 275.037C207.668 278.321 204.298 292.44 199.51 289.02C194.721 285.6 192.134 268.04 192.134 268.04C192.134 268.04 196.161 264.661 197.048 261.272C197.924 257.883 205.696 264.234 204.768 267.247Z" fill="#EAA373"/>
<path d="M196.015 263.577C196.464 262.836 196.839 262.054 197.048 261.272C197.924 257.883 205.696 264.234 204.768 267.247C204.768 267.247 200.678 267.779 196.015 263.577Z" fill="#CE8451"/>
<path d="M192.207 257.508C190.924 255.109 190.945 252.596 192.238 251.898C193.073 251.449 194.231 251.866 195.295 252.847C195.89 253.399 196.453 254.129 196.912 254.984C196.912 255.005 196.933 255.026 196.943 255.036C198.154 257.341 198.175 259.729 196.996 260.511C196.954 260.532 196.923 260.563 196.881 260.584C196.714 260.667 196.537 260.73 196.349 260.751C195.055 260.907 193.323 259.593 192.197 257.497L192.207 257.508Z" fill="#E89997"/>
<path d="M212.936 253.743C212.936 253.743 212.05 256.861 212.237 259.437C212.425 262.013 209.442 265.965 206.948 267.07C204.455 268.175 199.552 265.349 197.799 263.368C196.046 261.387 194.993 256.496 195.013 254.317C195.024 252.127 198.717 243.618 204.893 244.922C211.069 246.225 214.261 248.415 212.936 253.743Z" fill="#FABC8B"/>
<path d="M193.981 266.236C193.981 266.236 184.581 267.602 182.766 269.719C180.951 271.835 173.679 314.985 173.679 314.985H236.994L232.748 300C232.748 300 221.992 297.883 220.323 296.82C218.653 295.756 211.685 271.689 210.172 270.928C208.659 270.167 204.434 268.655 204.434 268.655C204.434 268.655 201.669 277.425 193.97 266.225L193.981 266.236Z" fill="#D9D1F2"/>
<path d="M206.5 278.415C206.5 278.415 205.602 279.155 204.789 277.028C203.975 274.911 204.121 273.045 204.121 273.045C204.121 273.045 202.671 273.097 201.868 272.138C201.868 272.138 197.319 273.806 195.379 271.867C193.428 269.927 193.981 266.236 193.981 266.236H193.991C197.663 271.575 200.209 272.367 201.868 271.741C203.161 271.251 203.912 269.906 204.246 269.166L204.392 269.009L204.476 268.676C204.799 268.79 208.732 270.209 210.182 270.928C210.777 271.22 212.196 275.068 213.802 279.698C213.802 279.698 212.957 282.711 209.775 280.928C206.594 279.145 206.489 278.405 206.489 278.405L206.5 278.415Z" fill="#AC8FE5"/>
<path d="M188.525 278.415C192.364 280.959 188.629 294.442 188.629 294.442C193.981 293.838 206.166 298.509 206.166 298.509L187.095 295.902L188.535 278.415H188.525Z" fill="#AC8FE5"/>
<path d="M206.155 280.939C206.625 277.727 209.014 304.338 209.014 304.338L207.209 304.401C207.209 304.401 205.686 284.15 206.155 280.939Z" fill="#AC8FE5"/>
<path d="M193.981 266.236L201.868 271.741C201.868 271.741 192.718 275.85 193.981 266.236Z" fill="white"/>
<path d="M201.868 271.741L204.392 269.009C206.072 274.755 201.868 271.741 201.868 271.741Z" fill="white"/>
<path d="M205.467 298.415L204.476 304.536H214.981C214.981 304.536 214.574 299.656 205.467 298.415Z" fill="#FABC8B"/>
<path d="M232.748 299.99L232.904 304.536H241.594C241.594 304.536 241.939 300.699 232.748 299.99Z" fill="#FABC8B"/>
<path d="M203.954 383.327C203.954 383.327 201.836 380.668 201.941 378.656C202.045 376.654 206.917 365.715 206.917 365.715L199.301 363.734L196.808 371.701C196.808 371.701 193.636 374.255 195.316 377.822C196.996 381.388 202.796 387.488 203.944 383.327H203.954Z" fill="#FABC8B"/>
<path d="M196.818 371.701C196.818 371.701 194.607 372.691 194.304 374.172C194.002 375.653 194.878 377.686 194.763 379.605C194.648 381.534 193.939 385.486 193.939 385.486L194.961 385.757L196.568 381.096C196.568 381.096 196.505 386.153 199.28 386.883C202.066 387.603 207.251 389.897 206.614 387.227C205.978 384.558 203.954 383.327 203.954 383.327C203.954 383.327 200.084 384.662 198.738 380.251C197.382 375.84 195.629 373.265 196.818 371.701Z" fill="#231527"/>
<path d="M197.309 370.126L203.328 374.297L203.85 372.399L197.309 370.126Z" fill="#CE8451"/>
<path d="M232.184 383.286C232.184 383.286 229.472 381.242 229.065 379.271C228.658 377.3 230.63 365.496 230.63 365.496H222.753L222.347 373.828C222.347 373.828 219.926 377.102 222.451 380.126C224.976 383.15 232.122 387.603 232.184 383.286Z" fill="#FABC8B"/>
<path d="M222.347 373.838C222.347 373.838 220.458 375.35 220.531 376.862C220.604 378.374 221.971 380.116 222.347 382.003C222.722 383.89 223.025 387.905 223.025 387.905H224.089L224.464 382.994C224.464 382.994 225.675 387.905 228.554 387.905C231.433 387.905 237.025 388.812 235.742 386.393C234.459 383.974 232.184 383.296 232.184 383.296C232.184 383.296 228.783 385.569 226.363 381.628C223.943 377.696 221.595 375.653 222.357 373.838H222.347Z" fill="#231527"/>
<path d="M222.347 373.838L229.242 375.288L229.43 373.682L222.347 373.838Z" fill="#CE8451"/>
<path d="M185.593 264.974C189.223 259.625 190.799 255.818 191.247 251.147C191.665 246.788 193.647 243.399 196.484 241.418C195.806 241.053 195.316 240.552 195.118 239.916C194.429 237.779 197.142 234.995 201.169 233.702C205.196 232.408 209.024 233.086 209.713 235.214C210.214 236.757 208.93 238.634 206.656 240.052C207.146 240.208 207.637 240.386 208.127 240.594C216.306 244.129 214.272 256.632 213.667 260.302C213.062 263.962 213.792 271.053 214.334 274.922C214.72 277.696 214.47 279.416 213.072 280.459C212.018 281.283 210.85 280.918 209.817 280.167C208.617 279.51 207.658 278.269 206.907 276.851V276.841C206.907 276.841 206.646 278.937 205.352 277.122C204.069 275.308 204.444 269.02 204.444 269.02L204.403 268.989C204.549 267.935 204.778 267.226 204.778 267.226C205.592 267.362 206.354 267.331 206.969 267.059C209.462 265.954 212.446 262.002 212.258 259.426C212.112 257.435 212.603 255.12 212.843 254.181C212.843 254.181 210.819 253.232 211.059 250.334C211.059 250.334 205.196 254.421 204.142 251.72C204.142 251.72 198.133 254.16 198.54 251.491L196.411 252.398C196.411 252.398 196.61 260.375 196.036 259.823C195.462 259.27 194.335 252.169 194.325 252.138C193.574 251.71 192.833 251.606 192.249 251.908C190.945 252.607 190.934 255.109 192.218 257.518C193.334 259.614 195.076 260.938 196.37 260.772C196.526 261.168 196.693 261.533 196.87 261.887C196.829 262.012 196.777 262.127 196.724 262.252C196.693 262.325 196.672 262.388 196.641 262.461C196.558 262.628 196.474 262.805 196.391 262.972C196.391 262.993 196.37 263.014 196.359 263.024C196.255 263.212 196.151 263.399 196.046 263.577C195.441 264.578 194.69 265.495 194.012 266.236C193.918 266.246 186.876 267.278 183.851 268.936C183.986 267.956 184.487 266.663 185.624 264.974H185.593Z" fill="#010000"/>
<path d="M195.013 262.2C195.013 262.711 195.233 263.139 195.514 263.139C195.796 263.139 196.015 262.722 196.015 262.2C196.015 261.679 195.796 261.262 195.514 261.262C195.233 261.262 195.013 261.679 195.013 262.2Z" fill="white"/>
<path d="M177.727 315.204C177.727 315.204 178.395 330.981 187.085 331.179C195.765 331.377 205.331 333.233 205.331 333.233L195.504 369.5L207.532 373.682L219.436 340.48L220.823 373.682H231.934C231.934 373.682 238.799 327.957 236.983 325.934C235.168 323.911 213.229 315.204 213.229 315.204H177.727Z" fill="#31273E"/>
<path d="M223.359 324.974C222.044 323.932 205.383 317.394 200.897 315.642L177.727 315.204H213.229L214.971 315.902L201.471 315.652C206.98 317.122 224.11 321.877 225.622 324.672C227.438 327.998 221.658 338.103 221.293 341.909C220.928 345.715 220.823 373.682 220.823 373.682L219.436 340.48C219.436 340.48 224.871 326.194 223.348 324.985L223.359 324.974Z" fill="#231527"/>
<path d="M92.0451 304.536H282.135C284.816 304.536 286.986 306.914 286.986 309.854V382.577C286.986 385.517 284.816 387.895 282.135 387.895H259.392C256.711 387.895 254.541 385.517 254.541 382.577C254.541 379.636 256.711 377.259 259.392 377.259H277.284V315.172H96.8857V377.259H114.777C117.459 377.259 119.628 379.636 119.628 382.577C119.628 385.517 117.459 387.895 114.777 387.895H92.0346C89.3535 387.895 87.1835 385.517 87.1835 382.577V309.854C87.1835 306.914 89.3535 304.536 92.0346 304.536H92.0451Z" fill="#AC8FE5"/>
<path d="M133.681 302.294L142.716 280.98C142.851 280.668 143.164 280.459 143.508 280.459H175.453C176.068 280.459 176.485 281.085 176.245 281.648L166.762 304.005C166.627 304.317 166.314 304.526 165.97 304.526H118.084C117.615 304.526 117.229 304.14 117.229 303.671C117.229 303.202 117.615 302.816 118.084 302.816H132.888C133.232 302.816 133.545 302.607 133.681 302.294Z" fill="#5B3B6D"/>
<path d="M135.444 304.536H167.388C167.733 304.536 168.046 304.328 168.181 304.015L177.664 281.658C177.904 281.095 177.487 280.469 176.871 280.469H144.927C144.583 280.469 144.27 280.678 144.134 280.991L134.651 303.348C134.411 303.911 134.829 304.536 135.444 304.536Z" fill="#1E1223"/>
<path d="M152.72 298.061C153.941 299.708 156.831 299.646 159.157 297.915C161.484 296.184 162.381 293.452 161.16 291.804C159.94 290.157 157.05 290.219 154.723 291.95C152.397 293.681 151.5 296.413 152.72 298.061Z" fill="white"/>
<path d="M218.393 302.294L227.427 280.98C227.563 280.668 227.876 280.459 228.22 280.459H260.164C260.78 280.459 261.197 281.085 260.957 281.648L251.474 304.005C251.338 304.317 251.025 304.526 250.681 304.526H202.796C202.327 304.526 201.941 304.14 201.941 303.671C201.941 303.202 202.327 302.816 202.796 302.816H217.6C217.944 302.816 218.257 302.607 218.393 302.294Z" fill="#7255AA"/>
<path d="M220.145 304.536H252.089C252.434 304.536 252.747 304.328 252.882 304.015L262.365 281.658C262.605 281.095 262.188 280.469 261.573 280.469H229.628C229.284 280.469 228.971 280.678 228.836 280.991L219.352 303.348C219.112 303.911 219.53 304.536 220.145 304.536Z" fill="#4E2F7F"/>
<path d="M236.775 298.061C237.995 299.708 240.885 299.646 243.211 297.915C245.538 296.184 246.435 293.452 245.215 291.804C243.994 290.157 241.104 290.219 238.778 291.95C236.451 293.681 235.554 296.413 236.775 298.061Z" fill="white"/>
<path d="M365.71 383.286C365.71 383.286 368.422 381.242 368.829 379.271C369.236 377.3 367.264 365.496 367.264 365.496H375.14L375.547 373.828C375.547 373.828 377.968 377.102 375.443 380.126C372.918 383.15 365.772 387.603 365.71 383.286Z" fill="#FABC8B"/>
<path d="M375.547 373.838C375.547 373.838 377.436 375.35 377.363 376.862C377.29 378.374 375.923 380.116 375.547 382.003C375.172 383.89 374.869 387.905 374.869 387.905H373.805L373.43 382.994C373.43 382.994 372.219 387.905 369.34 387.905C366.461 387.905 360.869 388.812 362.152 386.393C363.435 383.974 365.71 383.296 365.71 383.296C365.71 383.296 369.11 385.569 371.531 381.628C373.951 377.696 376.298 375.653 375.537 373.838H375.547Z" fill="#4E2F7F"/>
<path d="M375.547 373.838L368.213 371.701L375.474 372.441L375.547 373.838Z" fill="#CE8451"/>
<path d="M384.092 383.286C384.092 383.286 386.804 381.242 387.211 379.271C387.618 377.3 385.646 365.496 385.646 365.496H393.522L393.929 373.828C393.929 373.828 396.35 377.102 393.825 380.126C391.3 383.15 384.154 387.603 384.092 383.286Z" fill="#FABC8B"/>
<path d="M393.929 373.838C393.929 373.838 395.818 375.35 395.745 376.862C395.672 378.374 394.305 380.116 393.929 382.003C393.554 383.89 393.251 387.905 393.251 387.905H392.187L391.812 382.994C391.812 382.994 390.601 387.905 387.722 387.905C384.843 387.905 379.251 388.812 380.534 386.393C381.817 383.974 384.092 383.296 384.092 383.296C384.092 383.296 387.493 385.569 389.913 381.628C392.333 377.696 394.68 375.653 393.919 373.838H393.929Z" fill="#4E2F7F"/>
<path d="M386.71 372.577L393.888 373.171L393.835 371.909L386.71 372.577Z" fill="#CE8451"/>
<path d="M399.156 287.487L396.35 336.633L400.888 371.252L380.346 373.171L381.254 335.121L381.702 302.263L380.565 330.793L378.677 372.764L359.794 370.846L365.751 335.871L364.259 287.487H399.156Z" fill="#4E2F7F"/>
<path d="M394.858 212.064C396.058 213.065 395.536 215.662 393.7 217.883C392.093 219.822 390.007 220.813 388.703 220.375C388.515 220.312 388.348 220.219 388.191 220.093C388.15 220.062 388.118 220.02 388.087 219.989C387.044 218.936 387.566 216.465 389.308 214.337C389.318 214.317 389.339 214.306 389.349 214.285C390.007 213.493 390.747 212.857 391.478 212.419C392.792 211.626 394.075 211.439 394.847 212.085L394.858 212.064Z" fill="#E89997"/>
<path d="M378.614 225.297C378.614 225.297 379.199 230.271 376.225 233.211C373.252 236.152 373.742 251.491 379.428 248.968C385.114 246.444 391.53 228.801 391.53 228.801C391.53 228.801 388.077 224.442 387.889 220.74C387.701 217.038 378.291 221.97 378.614 225.286V225.297Z" fill="#EAA373"/>
<path d="M388.463 223.357C388.15 222.492 387.931 221.605 387.889 220.75C387.701 217.049 378.291 221.981 378.614 225.297C378.614 225.297 382.735 226.725 388.463 223.357Z" fill="#CE8451"/>
<path d="M373.023 209.572C373.023 209.572 373.273 212.992 372.532 215.62C371.792 218.248 374.035 222.972 376.382 224.65C378.729 226.329 384.415 224.442 386.647 222.763C388.88 221.084 391.019 216.246 391.467 213.983C391.916 211.72 389.913 202.106 383.236 202.148C376.559 202.189 372.783 203.774 373.023 209.572Z" fill="#FABC8B"/>
<path d="M370.091 211.678C369.893 203.806 374.024 195.536 382.975 195.536C391.926 195.536 394.127 202.2 395.505 209.363C396.882 216.527 402.609 222.513 402.609 222.513C400.491 226.486 397.101 227.518 395.108 227.768C392.124 226.444 389.349 225.318 389.318 225.307C389.005 224.692 388.703 224.035 388.463 223.357C388.39 223.149 388.317 222.93 388.254 222.721C388.254 222.7 388.244 222.68 388.233 222.659C388.181 222.461 388.129 222.273 388.077 222.075C388.056 222.002 388.045 221.918 388.035 221.845C388.004 221.71 387.983 221.574 387.962 221.439C388.223 221.115 388.473 220.75 388.713 220.375C390.017 220.823 392.104 219.822 393.71 217.883C395.546 215.672 396.068 213.065 394.868 212.064C394.253 211.553 393.293 211.574 392.271 212.012C392.26 212.106 391.196 218.853 389.464 219.259C389.464 219.259 391.499 213.607 390.121 211.386L388.88 210.469C389.182 213.399 382.516 208.55 382.516 208.55C383.935 211.272 375.046 206.736 375.046 206.736C374.441 209.843 373.064 210.677 373.064 210.677C373.075 211.897 373.012 213.92 372.532 215.62C371.792 218.248 374.035 222.972 376.382 224.65C376.956 225.057 377.738 225.255 378.614 225.286C378.614 225.286 378.646 225.589 378.656 226.089C378.656 226.089 372.772 227.852 368.912 229.353C365.344 227.518 364.937 224.588 364.937 224.588C367.66 224.087 370.289 219.541 370.091 211.668V211.678Z" fill="#010000"/>
<path d="M343.478 251.908C343.478 251.908 340.838 247.873 339.534 246.986C338.23 246.1 336.958 246.59 335.653 245.996C334.349 245.401 333.191 244.442 330.573 244.651C327.944 244.849 326.953 245.182 325.524 244.578C324.094 243.973 323.646 244.296 324.094 245.036C324.543 245.777 326.379 246.527 326.379 246.527C326.379 246.527 323.521 245.401 323.834 246.267C324.178 247.216 326.692 249.291 326.692 249.291C326.692 249.291 325.67 248.915 324.324 248.248C322.978 247.581 321.413 246.673 321.737 247.789C322.06 248.905 322.801 248.988 324.439 249.864C326.066 250.73 327.996 251.376 328.998 251.116C328.998 251.116 330.542 252.054 331.126 251.585C331.126 251.585 332.472 252.065 333.118 251.616C333.118 251.616 334.141 251.658 335.038 250.938C335.038 250.938 336.269 250.563 336.728 250.824C337.187 251.084 339.774 255.454 339.774 255.454L343.488 251.919L343.478 251.908Z" fill="#FABC8B"/>
<path d="M326.723 249.239L329.018 251.053C329.018 251.053 329.05 251.116 329.018 251.136C328.998 251.157 328.977 251.168 328.945 251.157C328.945 251.157 328.935 251.157 328.925 251.157L326.629 249.343C326.629 249.343 326.598 249.28 326.629 249.26C326.65 249.228 326.692 249.228 326.713 249.26L326.723 249.239Z" fill="#E0665C"/>
<path d="M326.254 246.423C326.848 246.09 327.767 246.267 328.612 246.851C328.851 246.548 329.144 246.392 329.477 246.392C330.02 246.392 330.98 246.809 332.44 248.79C332.868 249.374 333.817 249.531 333.828 249.531C333.859 249.531 333.88 249.562 333.88 249.604C333.88 249.635 333.849 249.656 333.807 249.656C333.786 249.656 333.577 249.614 333.317 249.52C332.993 249.406 332.586 249.207 332.336 248.863C330.907 246.913 329.989 246.507 329.467 246.507C329.175 246.507 328.914 246.642 328.695 246.913C329.311 247.383 330.103 248.457 330.688 249.249C330.959 249.614 331.188 249.927 331.345 250.104C331.856 250.688 333.118 251.533 333.129 251.543C333.16 251.564 333.16 251.595 333.15 251.627C333.129 251.658 333.098 251.658 333.066 251.647C333.014 251.616 331.783 250.782 331.261 250.188C331.094 250 330.865 249.687 330.594 249.322C329.999 248.519 329.185 247.414 328.57 246.976C327.767 246.402 326.848 246.215 326.296 246.527C326.296 246.527 326.285 246.538 326.275 246.559C326.223 247.049 329.154 249.791 331.136 251.522C331.157 251.543 331.168 251.585 331.136 251.606C331.115 251.627 331.094 251.627 331.074 251.627C331.074 251.627 331.063 251.627 331.053 251.616C330.542 251.168 326.076 247.257 326.15 246.548C326.15 246.496 326.181 246.454 326.223 246.423H326.254Z" fill="#E0665C"/>
<path d="M336.551 250.678C337.823 250.928 340.202 249.698 340.233 249.687C340.265 249.677 340.296 249.687 340.317 249.708C340.327 249.739 340.317 249.77 340.296 249.791C340.202 249.843 337.855 251.053 336.54 250.792C336.509 250.792 336.499 250.751 336.499 250.719C336.499 250.688 336.54 250.667 336.572 250.667L336.551 250.678Z" fill="#E0665C"/>
<path d="M333.546 249.093C333.546 249.093 333.504 249.134 333.473 249.124C333.442 249.114 333.431 249.072 333.442 249.041C333.64 248.603 334.141 248.603 334.297 248.603C334.829 247.685 336.624 246.705 336.697 246.663C336.728 246.642 336.759 246.663 336.78 246.684C336.801 246.715 336.78 246.746 336.759 246.767C336.738 246.767 334.871 247.8 334.391 248.696C334.381 248.717 334.36 248.728 334.329 248.728C334.329 248.728 333.744 248.665 333.557 249.082L333.546 249.093Z" fill="#E0665C"/>
<path d="M389.318 225.297C389.318 225.297 399.292 229.353 401.848 231.136C404.403 232.93 410.83 270.334 410.83 272.252C410.83 274.171 406.448 279.812 404.153 279.176C401.848 278.54 399.166 278.259 399.166 278.259L400.272 286.205C400.366 286.882 399.845 287.487 399.156 287.487H363.696C363.039 287.487 362.528 286.934 362.569 286.278L364.019 265.975C364.019 265.975 359.565 275.808 356.623 274.526C353.681 273.243 333.473 252.993 333.473 252.993L341.475 246.663L356.174 256.632C356.174 256.632 364.28 232.294 365.814 230.896C367.347 229.489 378.677 226.11 378.677 226.11C378.677 226.11 379.303 235.881 379.616 236.59C379.929 237.299 389.329 225.318 389.329 225.318L389.318 225.297Z" fill="#9278D1"/>
<path d="M397.789 259.948L397.758 236.569L400.585 261.846L403.319 266.767L387.555 255.12L397.789 259.948Z" fill="#260D56"/>
<path d="M367.368 235.505L364.009 265.975L361.401 270.751L367.368 235.505Z" fill="#260D56"/>
<path d="M399.156 278.259L399.98 284.182L397.257 278.499L383.778 263.962L376.163 261.637L384.686 262.909L399.156 278.259Z" fill="#260D56"/>
<path d="M389.318 225.297C389.318 225.297 392.458 242.836 379.595 236.569C379.595 236.569 388.39 229.687 389.318 225.297Z" fill="#260D56"/>
<path d="M379.595 236.569C379.595 236.569 372.021 238.644 378.656 226.089C378.656 226.089 377.342 234.202 379.595 236.569Z" fill="#260D56"/>
<path d="M379.595 236.569L389.318 225.297C392.677 239.916 379.595 236.569 379.595 236.569Z" fill="white"/>
<path d="M378.656 226.1L379.595 236.58C379.595 236.58 370.853 236.475 378.656 226.1Z" fill="white"/>
<path d="M378.072 255.381C377.415 255.151 375.088 254.265 372.804 252.409C370.102 250.208 378.468 253.597 381.379 254.838C384.29 256.079 383.945 253.869 383.173 252.294C382.401 250.73 381.243 248.373 385.343 252.367C386.355 253.347 387.054 254.275 387.545 255.12L384.676 262.909C380.878 263.691 375.558 261.595 374.035 260.626C371.802 259.187 376.966 259.791 376.966 259.791C376.966 259.791 372.157 257.643 370.811 256.329C369.726 255.266 374.65 256.528 376.653 257.07C375.255 256.653 372.376 255.673 370.456 254.088C368.057 252.117 376.664 254.922 378.051 255.381H378.072Z" fill="#FABC8B"/>
<path d="M395.734 289.239C395.734 289.239 395.734 289.249 395.734 289.26C395.056 295.068 398.582 297.425 398.728 297.529C398.864 297.623 398.906 297.811 398.822 297.946C398.76 298.04 398.666 298.082 398.572 298.082C398.52 298.082 398.457 298.071 398.405 298.029C398.238 297.925 394.42 295.391 395.129 289.197L364.259 287.477H399.135L399.041 289.416L395.734 289.229V289.239Z" fill="#260D56"/>
<path d="M396.35 336.633L400.888 371.252L393.627 336.174L397.528 315.902L396.35 336.633Z" fill="#260D56"/>
<path d="M91.8677 300.167H71.0654C69.8552 300.167 68.885 301.147 68.885 302.347C68.885 303.556 69.8657 304.526 71.0654 304.526H91.8677C93.0779 304.526 94.0481 303.546 94.0481 302.347C94.0481 301.137 93.0675 300.167 91.8677 300.167Z" fill="#8D63A8"/>
<path d="M82.051 300.167H56.8774V304.536H82.051V300.167Z" fill="#5B3B6D"/>
<path d="M92.0868 301.523H56.8042V303.587H92.0868V301.523Z" fill="#EFEAF4"/>
<path d="M82.0403 301.523H56.8042V303.587H82.0403V301.523Z" fill="#BFB3CE"/>
<path d="M94.455 295.902H73.6526C72.4425 295.902 71.4723 296.882 71.4723 298.082C71.4723 299.291 72.4529 300.261 73.6526 300.261H94.455C95.6651 300.261 96.6354 299.281 96.6354 298.082C96.6354 296.872 95.6547 295.902 94.455 295.902Z" fill="#FFDBE2"/>
<path d="M84.6382 295.902H59.4647V300.271H84.6382V295.902Z" fill="#FFB7C3"/>
<path d="M94.6741 297.258H59.3915V299.323H94.6741V297.258Z" fill="#EFEAF4"/>
<path d="M84.6276 297.258H59.3915V299.323H84.6276V297.258Z" fill="#BFB3CE"/>
<path d="M40.6652 295.245C40.6652 296.83 39.382 298.113 37.7963 298.113C36.2105 298.113 34.9273 296.83 34.9273 295.245C34.9273 293.66 36.2105 292.378 37.7963 292.378C39.382 292.378 40.6652 293.66 40.6652 295.245Z" fill="#EFEAF4"/>
<path d="M53.205 192.742C53.205 195.025 51.348 196.882 49.0633 196.882C46.7786 196.882 44.9216 195.025 44.9216 192.742C44.9216 190.458 46.7786 188.602 49.0633 188.602C51.348 188.602 53.205 190.458 53.205 192.742Z" stroke="#EFEAF4" stroke-miterlimit="10"/>
<path d="M340.609 344.047C340.609 347.571 337.75 350.428 334.224 350.428C330.698 350.428 327.84 347.571 327.84 344.047C327.84 340.522 330.698 337.665 334.224 337.665C337.75 337.665 340.609 340.522 340.609 344.047Z" stroke="#EFEAF4" stroke-miterlimit="10"/>
<path d="M262.438 161.96C262.438 163.086 261.531 163.993 260.404 163.993C259.277 163.993 258.37 163.086 258.37 161.96C258.37 160.833 259.277 159.926 260.404 159.926C261.531 159.926 262.438 160.833 262.438 161.96Z" fill="#EFEAF4"/>
<path d="M206.009 144.431C206.009 146.329 204.476 147.861 202.577 147.861C200.678 147.861 199.145 146.329 199.145 144.431C199.145 142.533 200.678 141 202.577 141C204.476 141 206.009 142.533 206.009 144.431Z" fill="#EFEAF4"/>
<path d="M405.916 202.148C407.743 202.148 409.223 200.668 409.223 198.842C409.223 197.016 407.743 195.536 405.916 195.536C404.09 195.536 402.609 197.016 402.609 198.842C402.609 200.668 404.09 202.148 405.916 202.148Z" fill="#EFEAF4"/>
<path d="M416.276 330.511C416.276 332.013 415.055 333.233 413.553 333.233C412.05 333.233 410.83 332.013 410.83 330.511C410.83 329.01 412.05 327.79 413.553 327.79C415.055 327.79 416.276 329.01 416.276 330.511Z" fill="#EFEAF4"/>
<path d="M59.5584 348.04C59.2663 347.853 58.8907 347.936 58.7029 348.228C55.4167 353.296 53.8205 357.728 53.059 361.096C51.5254 355.079 47.8949 349.354 47.7071 349.062C47.5193 348.77 47.1333 348.687 46.8517 348.875C46.5595 349.062 46.4761 349.448 46.6639 349.73C46.716 349.813 52.0366 358.176 52.4643 365.048C52.3391 366.831 52.4852 367.884 52.4956 367.999C52.5373 368.312 52.8086 368.531 53.1111 368.531C53.1424 368.531 53.1737 368.531 53.205 368.531C53.5389 368.478 53.7788 368.166 53.7266 367.832C53.7162 367.749 52.673 359.803 59.7462 348.906C59.934 348.614 59.8505 348.238 59.5584 348.051V348.04Z" fill="#4E2F7F"/>
<path d="M59.2141 340.824C53.0798 335.412 50.743 337.123 50.9307 331.554C51.129 325.986 47.9784 321.679 44.9216 320.876C41.8754 320.073 38.297 320.219 36.8886 314.088C35.4803 307.957 29.9615 307.3 27.3951 308.572C24.8391 309.854 22.0537 314.662 26.1119 319.469C30.1701 324.276 27.9167 327.05 26.7274 329.969C25.5381 332.889 27.103 337.988 31.6724 341.179C36.2418 344.359 33.4668 345.204 34.124 353.358C34.7813 361.513 51.8071 357.373 51.8071 357.373C51.8071 357.373 65.3275 346.236 59.1933 340.824H59.2141Z" fill="#9278D1"/>
<path d="M50.5656 337.613L45.245 344.245L42.0527 337.863L39.768 333.306L43.1899 324.86L39.2464 332.242L35.668 325.1L28.3549 310.501L35.0212 324.641L28.7618 321.158L35.282 325.183L41.3016 337.957L30.2223 334.881L42.0944 339.646L47.9888 352.472L37.8589 350.147L48.959 354.193L50.7221 357.926L51.8175 357.383L45.9127 345.569L50.5656 337.613Z" fill="#4E2F7F"/>
<path d="M48.0618 337.926C54.1961 332.514 56.533 334.224 56.3452 328.655C56.147 323.087 59.2976 318.78 62.3543 317.977C65.4006 317.175 68.9789 317.321 70.3873 311.189C71.7957 305.058 77.3144 304.401 79.8808 305.673C82.4368 306.955 85.2222 311.763 81.164 316.57C77.1058 321.377 79.3592 324.151 80.5485 327.07C81.7378 329.99 80.1729 335.089 75.6035 338.28C71.0341 341.46 73.8091 342.305 73.1519 350.459C72.4946 358.614 55.4689 354.474 55.4689 354.474C55.4689 354.474 41.9484 343.337 48.0827 337.926H48.0618Z" fill="#AC8FE5"/>
<path d="M56.6999 334.714L62.0204 341.346L65.2232 334.954L67.4975 330.397L64.0756 321.961L68.0296 329.344L71.6079 322.19L78.9106 307.592L72.2443 321.731L78.5142 318.249L71.9939 322.274L65.9639 335.047L77.0536 331.971L65.1711 336.737L59.2767 349.573L69.4171 347.237L58.3169 351.283L56.5538 355.027L55.448 354.474L61.3632 342.66L56.6999 334.714Z" fill="#4E2F7F"/>
<path d="M66.6003 377.467C66.6003 374.287 64.8268 371.44 62.0309 369.521C61.9996 368.134 60.8729 367.029 59.4749 367.029H47.7801C46.3926 367.029 45.2659 368.145 45.2242 369.521C42.4283 371.44 40.6548 374.276 40.6548 377.457C40.6548 380.637 42.4283 383.484 45.2242 385.392C45.2555 386.779 46.3822 387.884 47.7801 387.884H59.4749C60.8624 387.884 61.9891 386.768 62.0309 385.392C64.8268 383.473 66.6003 380.637 66.6003 377.446V377.467Z" fill="white"/>
<path d="M45.2346 369.834H62.0309C62.1978 369.834 62.3438 369.698 62.3438 369.521C62.3438 369.344 62.2082 369.208 62.0309 369.208H45.2346C45.0677 369.208 44.9216 369.344 44.9216 369.521C44.9216 369.698 45.0573 369.834 45.2346 369.834Z" fill="#9875BC"/>
<path d="M62.0309 385.1H45.2346C45.0677 385.1 44.9216 385.236 44.9216 385.413C44.9216 385.59 45.0573 385.726 45.2346 385.726H62.0309C62.1978 385.726 62.3438 385.59 62.3438 385.413C62.3438 385.236 62.2082 385.1 62.0309 385.1Z" fill="#9875BC"/>
</g>
<defs>
<clipPath id="clip0_0_1">
<rect width="399" height="248" fill="white" transform="translate(21 141)"/>
</clipPath>
<clipPath id="clip1_0_1">
<rect width="399" height="248" fill="white" transform="translate(21 141)"/>
</clipPath>
</defs>
</svg>
